<?xml version="1.0" encoding="utf-8"?>
<!-- Generator: Adobe Illustrator 16.0.0, SVG Export Plug-In . SVG Version: 6.00 Build 0)  -->
<!DOCTYPE svg PUBLIC "-//W3C//DTD SVG 1.1//EN" "http://www.w3.org/Graphics/SVG/1.1/DTD/svg11.dtd">
<svg version="1.1" id="_x3C_Layer_x3E_" xmlns="http://www.w3.org/2000/svg" xmlns:xlink="http://www.w3.org/1999/xlink" x="0px"
	 y="0px" width="828.977px" height="360px" viewBox="0 0 828.977 360" enable-background="new 0 0 828.977 360"
	 xml:space="preserve">
<linearGradient id="SVGID_1_" gradientUnits="userSpaceOnUse" x1="-429.1841" y1="696.3984" x2="-1137.5625" y2="160.8987" gradientTransform="matrix(1 0 0 1 1192.25 -252.8906)">
	<stop  offset="0.0202" style="stop-color:#45108A"/>
	<stop  offset="0.2929" style="stop-color:#3D065F"/>
	<stop  offset="1" style="stop-color:#12054E"/>
	<stop  offset="1" style="stop-color:#10054D"/>
</linearGradient>
<rect fill="url(#SVGID_1_)" width="828.977" height="360"/>
<g>
	<g>
		<path fill="#6FBCE6" d="M593.672,234.324l-8.407,9.38c0,0.837,0.681,1.515,1.517,1.515h73.281c0.838,0,1.514-0.678,1.514-1.515
			l-8.404-9.38H593.672z"/>
		<g>
			<path fill="#194992" d="M594.469,125.835c-0.844,0-1.529,0.683-1.529,1.528v106.604c0,0.844,0.688,1.526,1.529,1.526h57.171
				c0.845,0,1.53-0.685,1.53-1.526V127.363c0-0.845-0.688-1.528-1.53-1.528H594.469z"/>
			<g>
				<rect x="592.939" y="132.725" fill="#6954A0" width="60.229" height="95.88"/>
				<polygon opacity="0.3" fill="#FFFFFF" enable-background="new    " points="653.17,228.604 592.939,228.604 592.939,132.725 
									"/>
			</g>
			<g>
				<circle fill="#012257" cx="630.547" cy="129.437" r="0.823"/>
				<path fill="#012257" d="M629.473,129.437c0,0.407-0.33,0.736-0.733,0.736h-13.263c-0.405,0-0.736-0.33-0.736-0.736l0,0
					c0-0.408,0.331-0.737,0.736-0.737h13.263C629.143,128.7,629.473,129.029,629.473,129.437L629.473,129.437z"/>
			</g>
		</g>
	</g>
	<g>
		<ellipse fill="#6FBCE6" cx="678.125" cy="237.213" rx="19.073" ry="2.805"/>
		<g>
			<g>
				<g>
					<path fill="#FAB78D" d="M652.941,194.787c0,0,7.85-5.906,13.061-12.85l2.061,2.285c0,0-4.766,6.598-13.996,11.775
						L652.941,194.787z"/>
					<g>
						<polygon fill="#F7B68D" points="652.63,196.732 654.414,195.811 653.758,194.292 652.645,194.863 						"/>
						<g>
							<g>
								<path fill="#FAB78D" d="M651.537,195.434l-0.889,0.446c-0.364-0.657,0.805-1.067,0.805-1.067s1.512-0.4,1.997,1.025
									c0.171,0.456-0.872,1.321-0.872,1.321c-0.454,0.255-1.225,0.506-1.225,0.506c-0.354,0.065-0.389-0.345-0.389-0.345
									c-0.412,0.031-0.296-0.364-0.296-0.364c-0.405-0.069-0.206-0.415-0.206-0.415c-0.467-0.137-0.169-0.557-0.169-0.557
									L651.537,195.434z"/>
							</g>
						</g>
					</g>
				</g>
				<path fill="#5D5FA9" d="M663.919,182.844c0.313,0.997,0.71,1.874,1.619,2.672c0.44,0.387,0.94,0.81,1.479,1.146
					c3.213-3.364,5.233-6.321,5.649-7.08c0,0,1.117-2.392-1.47-3.222c0,0-2.83-1.242-4.688,1.879
					C666.514,178.239,665.808,180.091,663.919,182.844z"/>
			</g>
			<polygon fill="#3583B2" points="667.773,194.675 669.424,235.531 671.991,235.531 676.307,194.675 			"/>
			<path fill="#194992" d="M669.424,235.145l-4.359,1.117c0,0-0.56,0.168-0.56,0.951h7.486l-0.107-2.068H669.424z"/>
			<path fill="#194992" d="M685.335,233.277l-2.729,3.582c0,0-0.334,0.476,0.151,1.09l5.874-4.641l-1.366-1.557L685.335,233.277z"/>
			<polygon fill="#469BD5" points="667.773,196.021 672.314,204.508 675.271,216.016 685.335,233.277 687.266,231.754 
				680.095,213.954 678.947,196.096 			"/>
			<g>
				<rect x="672.25" y="172.058" fill="#F7B68D" width="3.021" height="4.044"/>
			</g>
			<path fill="#F7B68D" d="M680.597,177.851c-0.841-1.301-2.159-1.653-2.159-1.653l-3.166-1.172h-3.021l-3.162,1.172
				c0,0-1.321,0.352-2.162,1.653H680.597z"/>
			<path fill="#5D5FA9" d="M676.021,175.303l2.414,0.896c0,0,2.371,0.631,2.78,3.333l-1.396,2.771l0.527,18.099h-13.424l0.61-17.494
				l-1.229-3.376c0.407-2.701,2.781-3.333,2.781-3.333l2.34-0.867l1.842,0.908L676.021,175.303z"/>
			<g>
				<path fill="#81592A" d="M668.678,166.313c-0.067-0.549-0.129-0.741-0.143-2.045c-0.007-0.615,0.113-1.543,0.878-1.621
					c1.06-0.108,1.387,1.721,1.449,2.514c0.086,1.094-0.187,2.275-0.396,3.344c-0.075,0.387-0.067,1.159-0.502,1.345
					c-0.373,0.161-0.31,0.22-0.499-0.06C669.007,169.116,668.776,167.093,668.678,166.313z"/>
				<path fill="#F7B68D" d="M669.251,171.497c0.418,1.64,1.156,2.091,1.156,2.091l0.989,0.194c0.568-0.072,1.553-0.304,1.553-0.304
					c2.261-0.77,3.012-0.722,3.479-1.898c0.017-0.037,1.57-6.111,1.57-6.111c0.291-3.159-3.016-3.816-3.516-3.898
					c-0.493-0.114-3.642-0.989-4.57,2.043C669.912,163.613,668.538,167.126,669.251,171.497z"/>
				<path fill="#E6AA85" d="M675.705,172.109c-0.909,0.704-2.446,1.165-3.581,1.284c-2.011,0.212-2.465-1.268-2.812-2.838
					c0.029,0.361,0.07,0.728,0.134,1.104c0.391,1.53,1.079,1.952,1.079,1.952l0.923,0.18c0.532-0.068,1.448-0.284,1.448-0.284
					c2.108-0.717,2.809-0.674,3.243-1.771c0.005-0.003,0.03-0.114,0.077-0.294C676.08,171.7,675.923,171.943,675.705,172.109z"/>
				<path fill="#81592A" d="M673.749,160.529c0.94-0.125,2.033-0.364,2.96-0.061c1.236,0.404,1.233,1.814,1.792,2.775
					c0.596,1.023,0.972,1.891,0.92,3.005c-0.041,0.864-0.377,0.44-0.502,1.325c-0.14,0.983-0.327,1.06-0.795,1.882l-1.696,2.123
					c0.272-1.078,0.066-1.276,0.313-2.103c0.299-0.993,0.211-2.321-0.23-3.34c-0.392-0.901-0.663-0.883-1.495-1.101
					c-1.07-0.281-1.996-0.385-3.106-0.402c-1.017-0.016-2.123-0.045-2.948-0.725c-0.76-0.625-1.04-2.01-0.749-2.963
					c0,0,0.468-1.051,1.776-0.765c0.802,0.174,1.617,0.41,2.44,0.437C672.885,160.631,673.321,160.586,673.749,160.529z"/>
				<path fill="#F7B68D" d="M676.533,168.876c0,0,0.561-1.218,1.438-0.496c0,0,0.4,0.313-0.094,1.126c0,0-0.716,1.173-1.571,0.523
					L676.533,168.876z"/>
				<path fill="#81592A" d="M676.621,166.036c0,0-0.003,2.181-0.403,3.337l0.424,0.083c0,0,0.226-1.495,0.993-1.513L676.621,166.036
					z"/>
			</g>
		</g>
		<g>
			<path fill="#8CA3CE" d="M661.495,182.753h-15.418c-1.881,0-3.406,1.524-3.406,3.405v15.419c0,1.88,1.525,3.403,3.406,3.403
				h15.418c1.88,0,3.403-1.523,3.403-3.403v-15.419C664.898,184.277,663.375,182.753,661.495,182.753z"/>
			<g>
				<path fill="#6C3D84" d="M663.557,200.471c0,1.879-1.522,3.402-3.403,3.402h-15.42c-1.88,0-3.403-1.523-3.403-3.402v-15.42
					c0-1.881,1.523-3.404,3.403-3.404h15.42c1.881,0,3.403,1.522,3.403,3.404V200.471z"/>
				<path fill="#788AAE" d="M657.365,186.697h-8.038c-1.466,0-2.657,1.191-2.657,2.658v8.039c0,1.465,1.191,2.655,2.657,2.655h8.038
					c1.467,0,2.656-1.19,2.656-2.655v-8.039C660.021,187.889,658.832,186.697,657.365,186.697z M659.477,197.395
					c0,1.164-0.946,2.109-2.109,2.109h-8.038c-1.163,0-2.109-0.945-2.109-2.109v-8.039c0-1.164,0.946-2.107,2.109-2.107h8.038
					c1.163,0,2.109,0.943,2.109,2.107V197.395z"/>
				<path fill="#788AAE" d="M656.584,187.943h-6.477c-1.209,0-2.19,0.982-2.19,2.191v6.477c0,1.209,0.981,2.192,2.19,2.192h0.166
					v-0.549h-0.166c-0.905,0-1.645-0.737-1.645-1.646v-6.477c0-0.906,0.737-1.644,1.645-1.644h6.477
					c0.907,0,1.646,0.737,1.646,1.644v0.439h0.548v-0.439C658.777,188.928,657.794,187.943,656.584,187.943z"/>
				<path fill="#788AAE" d="M651.667,189.775v6.563l5.198-3.281L651.667,189.775z M652.215,190.771l3.622,2.285l-3.622,2.284
					V190.771z"/>
				<rect x="658.229" y="192.771" fill="#788AAE" width="0.55" height="0.438"/>
				<path fill="#788AAE" d="M658.229,196.611c0,0.031,0,0.063-0.002,0.094l0.547,0.031c0.004-0.041,0.005-0.084,0.005-0.125v-0.33
					h-0.55V196.611z"/>
				<rect x="658.229" y="195.404" fill="#788AAE" width="0.55" height="0.438"/>
				<path fill="#788AAE" d="M658.018,197.421l0.479,0.269c0.082-0.145,0.146-0.299,0.192-0.461l-0.523-0.15
					C658.128,197.195,658.078,197.313,658.018,197.421z"/>
				<path fill="#788AAE" d="M657.513,197.97l0.313,0.454c0.137-0.097,0.265-0.206,0.377-0.329l-0.404-0.37
					C657.712,197.816,657.616,197.898,657.513,197.97z"/>
				<rect x="658.229" y="194.525" fill="#788AAE" width="0.55" height="0.438"/>
				<rect x="658.229" y="191.016" fill="#788AAE" width="0.55" height="0.438"/>
				<path fill="#788AAE" d="M656.817,198.241l0.079,0.542c0.164-0.022,0.326-0.066,0.482-0.126l-0.2-0.513
					C657.064,198.189,656.942,198.225,656.817,198.241z"/>
				<rect x="658.229" y="191.893" fill="#788AAE" width="0.55" height="0.439"/>
				<rect x="658.229" y="193.648" fill="#788AAE" width="0.55" height="0.438"/>
				<rect x="655.98" y="198.257" fill="#788AAE" width="0.438" height="0.55"/>
				<rect x="651.591" y="198.257" fill="#788AAE" width="0.44" height="0.55"/>
				<rect x="650.713" y="198.257" fill="#788AAE" width="0.439" height="0.55"/>
				<rect x="652.469" y="198.257" fill="#788AAE" width="0.438" height="0.55"/>
				<rect x="655.104" y="198.257" fill="#788AAE" width="0.438" height="0.55"/>
				<rect x="653.347" y="198.257" fill="#788AAE" width="0.439" height="0.55"/>
				<rect x="654.227" y="198.257" fill="#788AAE" width="0.438" height="0.55"/>
				<rect x="650.467" y="189.936" fill="#788AAE" width="0.548" height="1.135"/>
				<rect x="650.467" y="191.639" fill="#788AAE" width="0.548" height="1.135"/>
				<rect x="650.467" y="193.34" fill="#788AAE" width="0.548" height="1.137"/>
				<rect x="650.467" y="195.044" fill="#788AAE" width="0.548" height="1.136"/>
				<g>
					<path fill="none" stroke="#FFFFFF" stroke-miterlimit="10" d="M658.846,196.779c0,1.314-1.064,2.385-2.384,2.385h-8.039
						c-1.314,0-2.383-1.068-2.383-2.385v-8.038c0-1.316,1.065-2.386,2.383-2.386h8.039c1.317,0,2.384,1.067,2.384,2.386V196.779z"/>
					<path fill="none" stroke="#FFFFFF" stroke-miterlimit="10" d="M649.205,197.917c-1.061,0-1.919-0.858-1.919-1.919v-6.477
						c0-1.06,0.858-1.918,1.919-1.918h6.475c1.062,0,1.92,0.858,1.92,1.918"/>
					<polygon fill="none" stroke="#FFFFFF" stroke-miterlimit="10" points="651.035,189.659 651.035,195.227 655.447,192.441 					
						"/>
					<path fill="none" stroke="#FFFFFF" stroke-miterlimit="10" stroke-dasharray="2" d="M657.6,189.521v6.477
						c0,1.061-0.858,1.919-1.92,1.919h-6.475"/>
					<g>
						<line fill="none" stroke="#FFFFFF" stroke-miterlimit="10" x1="649.837" y1="189.32" x2="649.837" y2="190.455"/>
						<line fill="none" stroke="#FFFFFF" stroke-miterlimit="10" x1="649.837" y1="191.023" x2="649.837" y2="192.159"/>
						<line fill="none" stroke="#FFFFFF" stroke-miterlimit="10" x1="649.837" y1="192.727" x2="649.837" y2="193.861"/>
						<line fill="none" stroke="#FFFFFF" stroke-miterlimit="10" x1="649.837" y1="194.43" x2="649.837" y2="195.564"/>
					</g>
				</g>
			</g>
		</g>
	</g>
	<g>
		<g>
			<path fill="#FAB78D" d="M657.157,193.873c0,0,10.009-0.314,14.696-10.422l1.716,2.555c0,0-5.2,9.975-16.259,9.471
				L657.157,193.873z"/>
			<g>
				<polygon fill="#F7B68D" points="656.395,195.586 658.388,195.346 658.306,193.693 656.324,193.9 				"/>
				<g>
					<g>
						<path fill="#FAB78D" d="M655.825,193.986l-0.988,0.104c-0.112-0.743,1.125-0.719,1.125-0.719s1.56,0.153,1.515,1.661
							c0,0.484-1.278,0.932-1.278,0.932c-0.513,0.08-1.323,0.049-1.323,0.049c-0.354-0.064-0.242-0.459-0.242-0.459
							c-0.396-0.117-0.148-0.445-0.148-0.445c-0.354-0.207-0.047-0.461-0.047-0.461c-0.392-0.291,0.035-0.58,0.035-0.58
							L655.825,193.986z"/>
					</g>
				</g>
			</g>
		</g>
		<path fill="#5D5FA9" d="M674.196,186.88c1.776-3.333,2.748-5.962,2.929-6.701c0,0,0.464-2.599-2.249-2.737
			c0,0-3.054-0.471-4.043,3.022c0,0-0.224,1.825-1.329,4.804C670.694,186.17,672.573,187.016,674.196,186.88z"/>
	</g>
	<g>
		<g>
			<path fill="#7B4880" d="M624.781,153.881c0.172-1.216-4.012-3.078-3.407-2.764c0,0-0.394-0.515-1.05-0.378
				c0,0-0.288,0.152-0.299,0.62c0,0,0,0.467-0.119,0.858c0,0,0.06,0.131,0.322,0.173l0.409-0.359l1.005,0.941
				C621.643,152.973,623.148,154.23,624.781,153.881z"/>
			<path fill="#F7B68D" d="M620.283,151.018c0,0,1.947,1.885,2.978,1.704c0,0,0.47-0.033,0.072-0.348c0,0-0.725-0.555-1.985-1.161
				L620.283,151.018z"/>
		</g>
		<g>
			<path fill="#7B4880" d="M610.232,156.521c0.426-1.151-3.271-3.857-2.743-3.421c0,0-0.276-0.585-0.947-0.591
				c0,0-0.313,0.087-0.424,0.541c0,0-0.099,0.458-0.296,0.815c0,0,0.027,0.141,0.275,0.238l0.479-0.265l0.782,1.132
				C607.359,154.971,608.563,156.518,610.232,156.521z"/>
			<path fill="#F7B68D" d="M606.442,152.771c0,0,1.506,2.255,2.55,2.297c0,0,0.468,0.067,0.146-0.325c0,0-0.591-0.696-1.694-1.555
				L606.442,152.771z"/>
		</g>
		<path fill="#602B15" d="M598.495,90.369c0.401,1.25,1.101,1.708,0.245,2.891c-0.744,1.03-1.423,1.786-1.532,3.125
			c-0.112,1.388,0.568,1.81,0.88,2.984c0.216,0.813-0.188,1.809-0.198,2.637c-0.016,1.324,0.115,2.069,1.046,3.013
			c0.38,0.384,0.487,0.32,0.726,0.826c0.21,0.451-0.026,0.947,0.459,1.262c1.401,0.914,5.054-1.141,5.044-2.601
			c-0.009-1.245-0.663-1.699,0.076-2.81c0.658-0.994,1.518-1.784,0.82-3.033c-0.809-1.456-1.729-1.993-1.575-3.826
			c0.101-1.237,0.979-1.968,1.088-3.27c0.105-1.29,0.48-3.565-0.501-4.612c-0.316-0.337-0.813-0.293-1.137-0.569
			c-0.449-0.381-0.418-0.881-0.779-1.29c-0.71-0.802-1.646-0.45-2.444,0.071C599.194,86.158,597.907,88.536,598.495,90.369z"/>
		<path fill="#602B15" d="M603.393,90.369c0.401,1.25,1.102,1.708,0.243,2.891c-0.743,1.03-1.422,1.786-1.532,3.125
			c-0.109,1.388,0.568,1.81,0.882,2.984c0.219,0.813-0.188,1.809-0.198,2.637c-0.016,1.324,0.116,2.069,1.046,3.013
			c0.379,0.384,0.489,0.32,0.725,0.826c0.209,0.451-0.023,0.947,0.459,1.262c1.401,0.914,5.055-1.141,5.044-2.601
			c-0.009-1.245-0.662-1.699,0.075-2.81c0.661-0.994,1.52-1.784,0.822-3.033c-0.81-1.456-1.729-1.993-1.576-3.826
			c0.103-1.237,0.979-1.968,1.088-3.27c0.106-1.29,0.48-3.565-0.501-4.612c-0.314-0.337-0.813-0.293-1.136-0.569
			c-0.45-0.381-0.418-0.881-0.78-1.29c-0.711-0.802-1.645-0.45-2.442,0.071C604.09,86.158,602.803,88.536,603.393,90.369z"/>
		<path fill="#BD7D59" d="M611.127,100.939c-0.798-1.236-2.054-1.572-2.054-1.572l-3.009-1.115h-2.873l-3.008,1.115
			c0,0-1.257,0.336-2.056,1.572H611.127z"/>
		<g>
			<path fill="#BD7D59" d="M618.785,124.974c0.582-0.541,0.212-0.789-0.163-1.261c-0.286-0.361-0.28-0.28-0.563-0.659
				c0,0,0.26,0.316,0.645,0.307c0.381-0.012,0.313-0.413,0.313-0.413l-1.002-0.538c-0.209-0.108-0.408-0.232-0.625-0.329
				c-0.245-0.11-0.62-0.145-0.88-0.083c-0.47,0.109-0.702,0.577-0.561,1.025c0.125,0.397,0.435,0.725,0.65,1.073
				C616.604,124.097,617.666,125.391,618.785,124.974z"/>
			<path fill="#BD7D59" d="M616.833,121.97l-4.096-7.115c0,0-0.643-1.218-0.849-2.478l-0.09-8.011c0,0,0.215-4.031-1.962-4.654
				c0,0-3.129-0.267-1.538,5.805l0.8,7.523c0,0,0.281,1.614,0.955,2.524l5.948,7.465L616.833,121.97z"/>
		</g>
		<path fill="#5D5FA9" d="M609.236,99.6c0,0,2.141-0.191,2.508,2.354l0.729,4.362c0,0-1.055,2.169-4.401,1.71l-0.849-5.439
			C607.223,102.586,606.871,100.297,609.236,99.6z"/>
		<path fill="#2F1E5C" d="M602.945,119.344h7.244l9.903,6.519l1.412,25.355h-1.575l-4.837-23.258l-10.467-4.448
			C604.628,123.512,601.798,122.728,602.945,119.344"/>
		<path fill="#413178" d="M607.845,153.063l-1.727-0.013l3.729-23.781l-8.134-3.857c-4.128-2.69-2.487-6.068-2.487-6.068h7.092
			l8.774,8.616L607.845,153.063z"/>
		<path fill="#602B15" d="M610.155,85.912c0.339,0.73,0.532,1.77,0.205,2.518c-0.723,1.658-3.966,2.094-4.86,0.441
			c-0.667-1.232-0.264-3.007,0.665-3.998C607.459,83.496,609.428,84.346,610.155,85.912z"/>
		<g>
			<rect x="603.191" y="95.432" fill="#BD7D59" width="2.873" height="3.844"/>
		</g>
		<path fill="#5D5FA9" d="M607.004,98.601c-0.229,0.968-1.273,1.406-1.273,1.406c-1.993-0.209-3.319-1.464-3.319-1.464l-2.604,0.969
			c0,0-3.447,0.712-0.983,5.11l0.463,0.552c0,0,1.94,3.287,1.573,7.202c-0.098,1.003-0.686,2.153-1.004,3.115
			c-0.422,1.265-0.845,2.465-1.057,3.853c0,0,5.365,1.454,11.73,0l-1.479-11.126c1.955-1.842,1.272-4.169,1.272-4.169
			s-0.854-3.294-0.559-4.378C609.768,99.671,609.041,99.217,607.004,98.601z"/>
		<g>
			<path fill="#BD7D59" d="M602.567,94.479c0.122,0.282,0.29,0.542,0.525,0.771c1.058,1.014,2.463,1.724,3.942,1.724
				c3.857-1.686,2.607-9.117,2.607-9.117c-0.582-3.555-3.621-3.548-3.621-3.548c-2.3-0.099-4.396,0.986-4.75,3.407
				c-0.135,0.928,0.046,1.923,0.092,2.85c0.033,0.682,0.117,1.361,0.336,2.011C601.924,93.24,602.29,93.839,602.567,94.479z"/>
			<path fill="#A97150" d="M609.052,94.879c-0.426,0.916-1.063,1.68-2.015,2.094c-1.479,0-2.887-0.71-3.942-1.724
				c-0.237-0.228-0.405-0.489-0.525-0.771c-0.052-0.117-0.106-0.231-0.161-0.345C604.249,96.229,606.934,98.252,609.052,94.879z"/>
			<path fill="#BD7D59" d="M602.162,91.768c0,0-0.303-1.265-1.275-0.743c0,0-0.438,0.223-0.123,1.091c0,0,0.461,1.251,1.399,0.793
				L602.162,91.768z"/>
		</g>
		<path fill="#F07D79" d="M598.977,118.134"/>
		<path fill="#602B15" d="M608.532,85.443c0,0,0.465,4.347-4.024,4.541c0,0-2.422,0.144-2.102,2.473c0,0-0.069-1.797-1.521-1.432
			c0,0-0.992-1.219-0.761-3.594c0,0-0.132-2.683,3.672-3.701C603.798,83.729,608.211,83.003,608.532,85.443z"/>
		<g>
			<path fill="#BD7D59" d="M597.366,127.489c0.763-0.224,0.542-0.612,0.417-1.201c-0.096-0.451-0.126-0.375-0.207-0.84
				c0,0,0.09,0.399,0.437,0.56c0.348,0.161,0.469-0.227,0.469-0.227l-0.657-0.929c-0.139-0.189-0.266-0.39-0.414-0.573
				c-0.168-0.208-0.488-0.406-0.748-0.468c-0.468-0.111-0.887,0.205-0.96,0.668c-0.064,0.412,0.063,0.842,0.104,1.25
				C595.806,125.729,596.179,127.362,597.366,127.489z"/>
			<path fill="#BD7D59" d="M596.962,123.929l0.438-10.152c-0.031-1.493-0.026-1.224,0.339-2.407l2.579-6.506
				c0,0,2.239-3.05,0.462-4.672c0,0-2.945-2.207-4.106,4.141l-1.795,7.298c0,0-0.341,1.128-0.145,2.243l1.013,10.634
				L596.962,123.929z"/>
		</g>
		<path fill="#5D5FA9" d="M600.648,99.821c0,0-2.006-0.776-3.063,1.567l-1.905,3.992c0,0,0.414,2.376,3.761,2.861l2.313-4.994
			C601.757,103.247,602.729,101.145,600.648,99.821z"/>
	</g>
	<g>
		<ellipse fill="#6FBCE6" cx="560.539" cy="237.303" rx="15.14" ry="2.805"/>
		<g>
			<g>
				<path fill="#B45381" d="M566.035,237.154c-0.081-1.229-4.56-2.189-3.9-2.006c0,0-0.492-0.422-1.104-0.153
					c0,0-0.251,0.208-0.165,0.667c0,0,0.097,0.459,0.059,0.865c0,0,0.085,0.115,0.354,0.104l0.327-0.438l1.177,0.716
					C562.778,236.91,564.51,237.831,566.035,237.154z"/>
				<path fill="#F7B68D" d="M561.045,235.242c0,0,2.296,1.479,3.266,1.09c0,0,0.452-0.128,0-0.354c0,0-0.824-0.401-2.186-0.735
					L561.045,235.242L561.045,235.242z"/>
			</g>
			<g>
				<path fill="#B45381" d="M561.045,237.154c-0.083-1.229-4.559-2.189-3.9-2.006c0,0-0.489-0.422-1.104-0.153
					c0,0-0.25,0.208-0.166,0.667c0,0,0.096,0.459,0.06,0.865c0,0,0.087,0.115,0.354,0.104l0.326-0.438l1.176,0.716
					C557.787,236.91,559.52,237.831,561.045,237.154z"/>
				<path fill="#F7B68D" d="M556.055,235.242c0,0,2.295,1.479,3.267,1.09c0,0,0.45-0.128,0-0.354c0,0-0.826-0.401-2.186-0.735
					L556.055,235.242L556.055,235.242z"/>
			</g>
			<path fill="#E88724" d="M553.387,162.643c-0.65,0.071-1.403,0.521-1.885,1.047c-0.658,0.724-0.994,1.604-1.086,2.572
				c-0.157,1.648,0.911,3.046,0.787,4.814c-0.122,1.724-1.355,3.196-1.148,5.002c0.178,1.548,1.322,2.773,1.456,4.401
				c0.129,1.587-0.935,3.083-0.662,4.576c1.733-0.029,2.63-2.57,2.921-3.972c0.4-1.946-0.755-2.995-0.889-4.835
				c-0.121-1.69,1.299-2.797,0.973-4.604c-0.323-1.79-1.379-2.873-0.199-4.553c0.594-0.849,1.117-2.239,1.015-3.282
				C554.575,162.865,554.029,162.572,553.387,162.643z"/>
			<polygon fill="#F7B68D" points="556.546,195.027 559.035,217.339 561.045,235.242 562.125,235.242 562.558,217.307 
				563.296,195.027 			"/>
			<polygon fill="#F7B68D" points="552.521,196.039 555.189,217.823 556.055,235.242 557.136,235.242 558.676,217.658 
				558.918,201.605 562.05,196.039 			"/>
			<path fill="#2E358B" d="M562.854,214.172l0.408-17.68h-10.777c-0.059,0.935-0.067,3.285,0.795,6.669l0.863,11.011
				C554.143,214.172,558.787,215.529,562.854,214.172z"/>
			<g>
				<path fill="#F7B68D" d="M569.669,188.818c0,0,0.315-1.234-0.801-3.188l-2.712-5.401c0,0-1.793-3.939-3.413-3.225
					c0,0-3.311,1.006,0.764,5.782l2.097,3.878C565.604,186.666,567.803,191.463,569.669,188.818"/>
			</g>
			<g>
				<rect x="556.637" y="172.333" fill="#F7B68D" width="2.872" height="3.845"/>
			</g>
			<path fill="#F7B68D" d="M551.573,177.841c0.799-1.236,2.053-1.57,2.053-1.57l3.011-1.116h2.872l3.007,1.116
				c0,0,1.258,0.334,2.058,1.57H551.573z"/>
			<path fill="#F7B68D" d="M554.843,170.869c0.535,0.825,1.245,1.509,2.193,1.97c0.354,0.171,0.727,0.306,1.108,0.398
				c0.271,0.066,0.881,0.259,1.146,0.142c3.858-1.686,2.606-9.117,2.606-9.117c-0.577-3.555-3.623-3.548-3.623-3.548
				c-2.295-0.1-4.394,0.986-4.743,3.407c-0.139,0.927,0.042,1.923,0.089,2.85c0.034,0.683,0.118,1.362,0.336,2.011
				C554.184,169.659,554.473,170.297,554.843,170.869z"/>
			<path fill="#E6AA85" d="M558.814,173.086c-1.718-0.122-3.095-1.452-4.24-2.673c0.084,0.156,0.174,0.308,0.269,0.456
				c0.535,0.825,1.245,1.509,2.193,1.97c0.354,0.171,0.727,0.306,1.108,0.398c0.271,0.066,0.881,0.259,1.146,0.142
				c0.608-0.266,1.089-0.673,1.469-1.172C560.242,172.572,559.479,173.134,558.814,173.086z"/>
			<path fill="#E88724" d="M555.177,171.332c-0.354-2.605-0.417-4.592,1.563-5.464c1.337-0.586,1.968-0.913,1.89-2.651
				c-0.082-1.839,0.114-2.663-1.308-3.038c-2.148-0.566-4.326,1.256-4.849,3.492C552.477,163.67,550.98,168.879,555.177,171.332z"/>
			<g>
				<path fill="#F7B68D" d="M578.058,178.89c-0.612-0.504-0.81-0.104-1.228,0.331c-0.319,0.335-0.239,0.316-0.575,0.647
					c0,0,0.276-0.3,0.216-0.677c-0.063-0.375-0.451-0.258-0.451-0.258l-0.396,1.066c-0.079,0.221-0.175,0.438-0.241,0.665
					c-0.076,0.256-0.06,0.632,0.035,0.882c0.174,0.45,0.667,0.616,1.094,0.416c0.375-0.177,0.657-0.526,0.975-0.79
					C577.482,181.171,578.622,179.941,578.058,178.89z"/>
				<path fill="#F7B68D" d="M568.848,186.248l6.495-5.02l1.162,0.679l-6.593,6.901c0,0-1.376,1.599-2.333,0.262
					C567.579,189.07,566.73,187.884,568.848,186.248z"/>
			</g>
			<path fill="#F7B68D" d="M555.176,168.173c0,0-0.304-1.265-1.274-0.742c0,0-0.438,0.221-0.122,1.09c0,0,0.461,1.25,1.397,0.793
				L555.176,168.173z"/>
			<path fill="#006BB5" d="M564.112,197.314l-1.619-12.191c1.954-1.843,1.271-4.17,1.271-4.17c-1.503-3.357-1.813-4.895-1.813-4.895
				l-1.508-0.553c-0.229,0.97-1.272,1.406-1.272,1.406c-1.995-0.209-3.319-1.465-3.319-1.465l-2.227,0.826
				c0,0-2.258,0.601-2.645,3.168l1.743,2.638c0.136,0.131,0.309,0.247,0.364,0.424c1.33,4.137,1.745,4.932,1.33,6.298
				c-0.754,2.481-2.171,5.904-2.215,8.513C552.205,197.314,556.938,198.783,564.112,197.314z"/>
			<path fill="#E88724" d="M560.252,164.213c0.549,0.168,0.98,0.424,1.412,0.916c0.357,0.408,0.396,0.675,0.431,1.934
				c0.016,0.544,1.726-0.888,1.423-3.71c-0.109-1.034-0.75-1.993-1.629-2.559c-0.625-0.403-2.627-1.746-5.729-0.614
				C555.045,160.584,557.789,163.456,560.252,164.213z"/>
		</g>
	</g>
	<g>
		<rect x="567.987" y="151.203" fill="#8CA3CE" width="53.372" height="77.639"/>
		<rect x="563.777" y="147.143" fill="#A5DAEF" width="53.369" height="77.636"/>
		<rect x="563.777" y="147.143" fill="#6880BC" width="53.369" height="6.214"/>
		<g>
			<circle fill="#A3DDF5" cx="608.521" cy="150.249" r="1.05"/>
			<circle fill="#6954A0" cx="611.459" cy="150.249" r="1.049"/>
			<circle fill="#6C3D84" cx="614.27" cy="150.249" r="1.05"/>
		</g>
		<g>
			<g>
				<g>
					<circle id="SVGID_2_" fill="#FFFFFF" cx="590.461" cy="170.76" r="13.012"/>
				</g>
				<g>
					<g>
						<defs>
							<circle id="SVGID_3_" cx="590.461" cy="170.76" r="13.012"/>
						</defs>
						<clipPath id="SVGID_4_">
							<use xlink:href="#SVGID_3_"  overflow="visible"/>
						</clipPath>
						<g clip-path="url(#SVGID_4_)">
							<g>
								<path fill="#5C79BB" d="M583.369,163.416c0,0,0.438-0.401,1.271,0.326l0.391-0.604
									C585.03,163.138,584.093,162.396,583.369,163.416z"/>
								<path fill="#5C79BB" d="M584.898,161.654c0,0-0.52,0.644,0.229,1.377l-0.504,0.508
									C584.623,163.539,583.468,162.125,584.898,161.654z"/>
							</g>
							<path fill="#A3DDF5" d="M582.773,179.002c0.906-1.406,2.336-1.787,2.336-1.787l3.42-1.267h3.264l3.419,1.267
								c0,0,1.427,0.38,2.336,1.787H582.773z"/>
							<path fill="#46C5E6" d="M594.62,185.658h5.284c0-0.904-0.061-2.189-0.061-2.189c-0.311-5.404-4.247-6.253-4.247-6.253
								c-3.071-0.743-1.396,4.007-1.396,4.007C594.121,182.366,594.291,183.905,594.62,185.658z"/>
							<g>
								<rect x="587.92" y="172.742" fill="#A3DDF5" width="4.483" height="4.37"/>
							</g>
							<g>
								<path fill="#6ECEF2" d="M592.403,174.771v-2.029h-4.483v1.006C589.197,174.812,590.738,174.947,592.403,174.771z"/>
							</g>
							<path fill="#5C79BB" d="M597.174,185.658c0.086-2.357,0.062-3.004,0.039-3.809c-0.047-1.792-0.43-3.305-1.609-4.634
								c-0.002-0.002-0.005-0.002-0.005-0.002l-3.194-1.042c0,0,0.671,1.175-2.268,1.175c0,0-1.934-0.075-2.217-1.175l-3.245,1.042
								c0,0-2.772,0.683-3.249,3.604l1.63,2.998l-0.059,1.843L597.174,185.658L597.174,185.658z"/>
							<g>
								<path fill="#5C79BB" d="M595.887,167.279c0.126-1.005-0.088-1.969-0.078-2.959c0.01-0.665-0.121-1.668-0.946-1.751
									c-1.146-0.118-1.499,1.86-1.565,2.717c-0.094,1.181,0.198,2.458,0.427,3.614c0.082,0.417,0.074,1.252,0.544,1.453
									c0.402,0.173,0.813-0.233,1.021-0.536C595.779,169.09,595.779,168.121,595.887,167.279z"/>
								<path fill="#A3DDF5" d="M595.037,172.133c-0.454,1.772-1.251,2.261-1.251,2.261l-1.071,0.208
									c-0.615-0.079-1.677-0.329-1.677-0.329c-2.444-0.832-3.153-1.056-3.532-1.985c-0.017-0.039-1.927-6.672-1.927-6.672
									c-0.313-3.414,3.261-4.124,3.801-4.213c0.533-0.123,3.938-1.069,4.941,2.208
									C594.321,163.612,595.807,167.41,595.037,172.133z"/>
								<path fill="#5C79BB" d="M596.16,160.309c0.193,1.061,0.012,2.527-0.812,3.204c-0.891,0.734-1.654,0.536-2.729,0.773
									c-1.116,0.248-2.258,0.347-3.38,0.563c-0.785,0.153-1.69,0.239-2.055,1.074c-0.478,1.101-0.57,2.537-0.25,3.609
									c0.269,0.894,0.351,1.763,0.645,2.926c-1.014-0.838-1.801-2.063-1.801-2.063c-0.506-0.888-0.506-0.888-1.075-2.434
									c-0.334-0.908-0.622-1.705-0.666-2.639c-0.058-1.206,0.526-1.731,1.174-2.837c0.604-1.041,1.451-1.762,2.562-2.092
									c0,0,5.607,0.315,5.504-0.966c0,0,1.348,0.344,1.091,1.24c0,0,1.409-0.257,1.109-1.24
									C595.479,159.426,596.047,159.695,596.16,160.309z"/>
								<path fill="#A3DDF5" d="M587.164,169.301c0,0-0.604-1.317-1.555-0.537c0,0-0.434,0.339,0.1,1.22
									c0,0,0.773,1.265,1.701,0.563L587.164,169.301z"/>
								<path fill="#5C79BB" d="M587.069,166.231c0,0,0.003,2.357,0.437,3.607l-0.459,0.091c0,0-0.241-1.616-1.074-1.635
									L587.069,166.231z"/>
							</g>
							<path fill="#46C5E6" d="M585.958,185.658c0,0-4.937,0-4.938,0c0.002,0,0.018-1.174,0.021-1.258
								c0.037-1.152,0.109-2.313,0.318-3.45c0.296-1.625,1.085-3.065,2.82-3.477c0.794-0.19,1.5,0.292,1.933,0.945
								C586.109,178.419,586.895,179.389,585.958,185.658z"/>
						</g>
					</g>
				</g>
			</g>
		</g>
		<g>
			<path fill="#FFFFFF" d="M610.893,189.93c0,0.385-0.312,0.694-0.693,0.694h-39.473c-0.385,0-0.694-0.312-0.694-0.694l0,0
				c0-0.386,0.312-0.695,0.694-0.695h39.473C610.581,189.232,610.893,189.544,610.893,189.93L610.893,189.93z"/>
			<path fill="#FFFFFF" d="M610.893,193.761c0,0.384-0.312,0.695-0.693,0.695h-39.473c-0.385,0-0.694-0.312-0.694-0.695l0,0
				c0-0.384,0.312-0.694,0.694-0.694h39.473C610.581,193.064,610.893,193.377,610.893,193.761L610.893,193.761z"/>
			<path fill="#FFFFFF" d="M610.893,197.594c0,0.383-0.312,0.695-0.693,0.695h-39.473c-0.385,0-0.694-0.313-0.694-0.695l0,0
				c0-0.386,0.312-0.695,0.694-0.695h39.473C610.581,196.898,610.893,197.208,610.893,197.594L610.893,197.594z"/>
			<path fill="#FFFFFF" d="M585.366,201.424c0,0.385-0.313,0.697-0.696,0.697h-13.943c-0.385,0-0.694-0.313-0.694-0.697l0,0
				c0-0.383,0.312-0.693,0.694-0.693h13.943C585.055,200.73,585.366,201.041,585.366,201.424L585.366,201.424z"/>
			<path fill="#FFFFFF" d="M610.893,205.15c0,0.385-0.312,0.694-0.693,0.694h-39.473c-0.385,0-0.694-0.312-0.694-0.694l0,0
				c0-0.383,0.312-0.694,0.694-0.694h39.473C610.581,204.456,610.893,204.768,610.893,205.15L610.893,205.15z"/>
			<path fill="#FFFFFF" d="M610.893,208.982c0,0.386-0.312,0.694-0.693,0.694h-39.473c-0.385,0-0.694-0.311-0.694-0.694l0,0
				c0-0.385,0.312-0.694,0.694-0.694h39.473C610.581,208.288,610.893,208.6,610.893,208.982L610.893,208.982z"/>
			<path fill="#FFFFFF" d="M610.893,212.814c0,0.385-0.312,0.693-0.693,0.693h-39.473c-0.385,0-0.694-0.311-0.694-0.693l0,0
				c0-0.385,0.312-0.694,0.694-0.694h39.473C610.581,212.12,610.893,212.432,610.893,212.814L610.893,212.814z"/>
			<path fill="#FFFFFF" d="M594.229,216.646c0,0.385-0.313,0.694-0.694,0.694h-22.808c-0.385,0-0.694-0.312-0.694-0.694l0,0
				c0-0.383,0.312-0.695,0.694-0.695h22.808C593.915,215.95,594.229,216.264,594.229,216.646L594.229,216.646z"/>
		</g>
	</g>
	<g>
		<g>
			<path fill="#F7B68D" d="M559.198,189.004c0,0,0.313-1.236-0.804-3.188l-2.709-5.402c0,0-1.796-3.938-3.414-3.223
				c0,0-2.116,0.643-0.883,3.344l3.74,6.314C555.131,186.85,557.331,191.646,559.198,189.004"/>
		</g>
		<g>
			<path fill="#F7B68D" d="M567.587,179.074c-0.615-0.504-0.811-0.104-1.229,0.331c-0.316,0.333-0.237,0.313-0.574,0.646
				c0,0,0.275-0.301,0.217-0.678c-0.063-0.375-0.45-0.257-0.45-0.257l-0.397,1.065c-0.077,0.222-0.176,0.439-0.24,0.665
				c-0.077,0.256-0.062,0.633,0.036,0.883c0.172,0.449,0.667,0.617,1.092,0.416c0.377-0.178,0.659-0.527,0.974-0.791
				C567.011,181.354,568.15,180.126,567.587,179.074z"/>
			<path fill="#F7B68D" d="M558.377,186.432l6.495-5.02l1.163,0.678l-6.594,6.903c0,0-1.377,1.598-2.336,0.261
				C557.105,189.254,556.259,188.066,558.377,186.432z"/>
		</g>
	</g>
</g>
</svg>
