<?xml version="1.0" encoding="utf-8"?>
<!-- Generator: Adobe Illustrator 16.0.0, SVG Export Plug-In . SVG Version: 6.00 Build 0)  -->
<!DOCTYPE svg PUBLIC "-//W3C//DTD SVG 1.1//EN" "http://www.w3.org/Graphics/SVG/1.1/DTD/svg11.dtd">
<svg version="1.1" id="Capa_1" xmlns="http://www.w3.org/2000/svg" xmlns:xlink="http://www.w3.org/1999/xlink" x="0px" y="0px"
	 width="512px" height="512px" viewBox="0 0 512 512" enable-background="new 0 0 512 512" xml:space="preserve">
<g>
	<g>
		<g>
			<g>
				<path fill="#EB7D16" d="M289.19,265.027l-28.004-45.318c-1.326-2.142-3.983-3.739-7.292-4.38l-34.16-6.581
					c0.05-0.374,0.079-0.751,0.079-1.134c0-0.694-0.093-1.358-0.271-2.015l24.988-13.474c2.229-1.205,3.993-2.78,5.088-4.567
					l27.945-45.203c1.156-1.871-0.164-4.018-2.938-4.793c-2.775-0.78-5.957,0.1-7.108,1.971l-27.938,45.208
					c-0.399,0.645-1.037,1.219-1.848,1.655L214.2,199.091c-1.718-1.057-3.77-1.875-6.018-2.388v-8.022
					c2.788-1.089,5.321-2.458,7.521-4.099c6.498-4.831,9.926-11.786,9.926-20.099c0-4.014-0.802-7.706-2.369-11.002l15.522-11.792
					c2.767-2.108,4.301-4.821,4.301-7.638V88.982c0-1.243,0.291-2.468,0.85-3.66l4.703-9.92c0.917-1.928-0.657-3.994-3.517-4.606
					c-2.865-0.621-5.924,0.445-6.847,2.368l-4.711,9.926c-0.907,1.908-1.36,3.893-1.36,5.892v45.069c0,1.023-0.555,2.008-1.555,2.77
					l-12.564,9.542c-0.738-0.698-1.526-1.369-2.376-1.995c-0.377-0.292-0.768-0.56-1.17-0.832
					c4.773-12.385-7.457-20.56-8.019-20.918c-2.157-1.406-5.61-1.373-7.705,0.081c-2.092,1.454-2.052,3.774,0.114,5.181
					c0.312,0.21,6.549,4.497,5.733,11.202c-4.146-1.186-8.728-1.797-13.56-1.797c-4.833,0-9.408,0.612-13.557,1.797
					c-0.81-6.676,5.378-10.953,5.729-11.202c2.137-1.407,2.194-3.721,0.108-5.171c-2.085-1.459-5.541-1.497-7.698-0.09
					c-0.554,0.354-12.784,8.529-8.002,20.918c-0.405,0.267-0.794,0.54-1.179,0.832c-0.843,0.626-1.637,1.296-2.374,1.995
					l-12.561-9.542c-1.013-0.761-1.561-1.747-1.561-2.771v-45.07c0-2-0.455-3.984-1.361-5.892l-4.712-9.926
					c-0.914-1.937-3.979-2.989-6.839-2.368c-2.863,0.613-4.441,2.678-3.525,4.606l4.712,9.92c0.553,1.192,0.845,2.417,0.845,3.66
					v45.069c0,2.813,1.525,5.529,4.305,7.638l15.511,11.792c-1.554,3.296-2.369,6.989-2.369,11.002
					c0,8.313,3.426,15.268,9.926,20.099c2.197,1.641,4.724,3.01,7.525,4.099v8.022c-2.256,0.516-4.3,1.331-6.021,2.388
					l-23.533-12.695c-0.812-0.436-1.448-1.01-1.844-1.655l-27.94-45.208c-1.157-1.871-4.349-2.755-7.116-1.98
					c-2.767,0.785-4.087,2.932-2.929,4.803l27.938,45.203c1.094,1.788,2.858,3.363,5.095,4.567l24.979,13.474
					c-0.169,0.662-0.268,1.33-0.268,2.015c0,0.382,0.029,0.766,0.084,1.134l-34.16,6.581c-3.314,0.641-5.973,2.238-7.301,4.38
					l-28.011,45.317c-1.156,1.878,0.157,4.019,2.931,4.798c0.681,0.192,1.385,0.282,2.092,0.282c2.129,0,4.151-0.852,5.023-2.258
					l28.01-45.315c0.042-0.078,0.127-0.124,0.249-0.142l33.601-6.469c-3.724,3.746-7.059,8.243-9.883,13.222l-21.604,12.566
					c-3.769,2.185-5.924,5.36-5.924,8.714v48.527c0,1.253-0.434,2.506-1.265,3.619l-9.798,13.202
					c-1.34,1.813-0.248,4.015,2.436,4.925c0.78,0.267,1.617,0.387,2.427,0.387c1.999,0,3.923-0.742,4.873-2.026l9.791-13.199
					c1.581-2.139,2.417-4.526,2.417-6.906v-48.527c0-1.214,0.79-2.369,2.15-3.165l8.606-5.005
					c-2.676,7.807-4.187,16.104-4.187,24.184c0,12.215,4.539,23.752,12.777,32.476c8.726,9.241,20.581,14.332,33.374,14.332
					c12.807,0,24.662-5.091,33.38-14.332c8.245-8.724,12.777-20.261,12.777-32.476c0-8.067-1.511-16.376-4.185-24.179l8.604,5
					c1.37,0.792,2.144,1.945,2.144,3.165v48.527c0,2.38,0.836,4.775,2.419,6.906l9.798,13.199c0.949,1.284,2.872,2.026,4.865,2.026
					c0.819,0,1.646-0.12,2.427-0.387c2.688-0.91,3.775-3.111,2.438-4.925l-9.8-13.202c-0.825-1.122-1.271-2.366-1.271-3.619V250.42
					c0-3.354-2.156-6.525-5.916-8.716l-21.604-12.56c-2.83-4.986-6.172-9.48-9.882-13.232l33.6,6.479
					c0.105,0.018,0.192,0.073,0.241,0.142l28.001,45.316c0.875,1.405,2.891,2.256,5.034,2.256c0.691,0,1.404-0.095,2.083-0.281
					C289.041,269.045,290.345,266.904,289.19,265.027z M167.459,164.474c0-12.255,9.059-19.866,23.639-19.866
					c14.579,0,23.64,7.61,23.64,19.866c0,12.254-9.061,19.864-23.64,19.864C176.518,184.337,167.459,176.728,167.459,164.474z
					 M197.3,191.316v4.784h-12.382v-4.784c2.002,0.23,4.073,0.358,6.188,0.358C193.219,191.675,195.291,191.546,197.3,191.316z
					 M179.471,211.789c-3.421,0-6.195-1.875-6.195-4.175c0-2.3,2.774-4.176,6.199-4.176h23.268c3.411,0,6.19,1.875,6.19,4.176
					c0,2.301-2.779,4.175-6.19,4.175c-3.01,0-5.442,1.646-5.442,3.675c0,2.027,2.433,3.662,5.442,3.662
					c1.461,0,2.886-0.123,4.247-0.362c1.839,1.699,3.576,3.627,5.223,5.74c-6.625,1.947-13.835,2.972-21.114,2.972
					c-7.264,0-14.495-1.024-21.105-2.972c1.646-2.112,3.391-4.041,5.229-5.74c1.363,0.24,2.787,0.362,4.25,0.362
					c3.008,0,5.441-1.64,5.441-3.662C184.912,213.435,182.479,211.789,179.471,211.789z M191.106,305.907
					c-7.791,0-15.295-2.949-21.504-8.353h43.01C206.407,302.966,198.889,305.907,191.106,305.907z M219.137,290.217h-56.055
					c-1.788-2.595-3.265-5.398-4.406-8.342h64.874C222.402,284.825,220.925,287.622,219.137,290.217z M226.379,266.438
					c0,2.762-0.254,5.465-0.758,8.097h-69.037c-0.497-2.632-0.752-5.345-0.752-8.097c0-0.084,0-0.166,0-0.252h70.536
					C226.375,266.271,226.379,266.354,226.379,266.438z M222.194,243.162h-7.822c-3.01,0-5.443,1.643-5.443,3.666
					c0,2.028,2.434,3.672,5.443,3.672h10.01c0.674,2.762,1.185,5.554,1.517,8.348h-69.604c0.333-2.794,0.852-5.586,1.526-8.348
					h33.272c3.008,0,5.449-1.644,5.449-3.672c0-2.023-2.434-3.666-5.449-3.666h-31.089c1.503-4.223,3.363-8.26,5.513-11.962
					c8.015,2.362,16.771,3.611,25.576,3.611c8.818,0,17.56-1.249,25.582-3.611C218.838,234.902,220.698,238.939,222.194,243.162z"/>
			</g>
		</g>
	</g>
	<g>
		<g>
			<path fill="#EB7D16" d="M462.864,420.965L343.376,301.47c55.239-82.26,33.336-193.724-48.924-248.963
				c-82.26-55.24-193.725-33.335-248.964,48.925C-9.75,183.69,12.154,295.156,94.413,350.395c60.494,40.623,139.547,40.623,200.04,0
				L413.94,469.89c13.51,13.511,35.414,13.511,48.924,0C476.373,456.38,476.373,434.476,462.864,420.965z M194.591,365.604
				c-90.529-0.102-163.895-73.465-163.995-163.995c0-90.572,73.423-163.995,163.995-163.995s163.995,73.423,163.995,163.995
				C358.586,292.182,285.163,365.604,194.591,365.604z M452.086,459.097c-3.629,3.631-8.553,5.67-13.685,5.667
				c-5.132,0.017-10.057-2.021-13.677-5.658L308.35,342.721l27.354-27.354l116.375,116.384
				C459.632,439.3,459.636,451.543,452.086,459.097z"/>
		</g>
	</g>
</g>
</svg>
