<?xml version="1.0" encoding="utf-8"?>
<!-- Generator: Adobe Illustrator 16.0.0, SVG Export Plug-In . SVG Version: 6.00 Build 0)  -->
<!DOCTYPE svg PUBLIC "-//W3C//DTD SVG 1.1//EN" "http://www.w3.org/Graphics/SVG/1.1/DTD/svg11.dtd">
<svg version="1.1" id="Layer_1" xmlns="http://www.w3.org/2000/svg" xmlns:xlink="http://www.w3.org/1999/xlink" x="0px" y="0px"
	 width="512px" height="512px" viewBox="0 0 512 512" enable-background="new 0 0 512 512" xml:space="preserve">
<g>
	<g id="product">
		<path fill="#EB7D16" d="M184,400H72c-4.419,0-8,3.582-8,8v48c0,4.418,3.581,8,8,8h112c4.418,0,8-3.582,8-8v-48
			C192,403.582,188.418,400,184,400z M176,448H80v-32h96V448z"/>
		<path fill="#EB7D16" d="M296,232h-32v-48c-0.003-4.418-3.587-7.998-8.005-7.995c-3.133,0.002-5.977,1.832-7.275,4.683l-40,88
			c-1.829,4.022-0.052,8.766,3.971,10.595c1.039,0.473,2.167,0.718,3.31,0.718h32v48c-0.003,3.768,2.622,7.025,6.304,7.824
			C254.862,335.941,255.43,336,256,336c3.136-0.001,5.981-1.834,7.279-4.688l40-88c1.83-4.022,0.052-8.765-3.97-10.594
			C298.271,232.245,297.142,232,296,232z M264,291.072V272c0-4.418-3.582-8-8-8h-27.576L248,220.928V240c0,4.418,3.581,8,8,8h27.576
			L264,291.072z"/>
		<path fill="#EB7D16" d="M248,144h16v16h-16V144z"/>
		<path fill="#EB7D16" d="M171.116,182.464l11.312-11.312l11.313,11.312l-11.313,11.312L171.116,182.464z"/>
		<path fill="#EB7D16" d="M144,248h16v16h-16V248z"/>
		<path fill="#EB7D16" d="M171.096,329.516l11.313-11.312l11.312,11.312l-11.312,11.313L171.096,329.516z"/>
		<path fill="#EB7D16" d="M248,352h16v16h-16V352z"/>
		<path fill="#EB7D16" d="M318.156,329.536l11.313-11.312l11.312,11.312l-11.312,11.312L318.156,329.536z"/>
		<path fill="#EB7D16" d="M352,248h16v16h-16V248z"/>
		<path fill="#EB7D16" d="M318.176,182.484l11.312-11.312l11.313,11.312l-11.313,11.312L318.176,182.484z"/>
		<path fill="#EB7D16" d="M208,80h96v16h-96V80z"/>
		<path fill="#EB7D16" d="M208,48h96v16h-96V48z"/>
		<path fill="#EB7D16" d="M456,16H56c-13.255,0-24,10.745-24,24v432c0,13.255,10.745,24,24,24h400c13.254,0,24-10.745,24-24V40
			C480,26.745,469.254,16,456,16z M464,40v24h-40V32h32C460.418,32,464,35.582,464,40z M340.615,210.648
			c3.002,5.61,5.436,11.506,7.265,17.6c0.873,2.924,3.334,5.096,6.344,5.6l29.776,4.96v34.448l-29.776,4.96
			c-3.01,0.504-5.471,2.677-6.344,5.601c-1.833,6.094-4.269,11.989-7.272,17.6c-1.437,2.687-1.223,5.955,0.552,8.432l17.528,24.545
			l-24.36,24.359l-24.544-17.527c-2.478-1.772-5.746-1.983-8.432-0.545c-5.609,3.002-11.506,5.436-17.6,7.264
			c-2.924,0.874-5.097,3.335-5.601,6.345L273.224,384h-34.448l-4.96-29.775c-0.504-3.01-2.676-5.471-5.6-6.345
			c-6.095-1.829-11.99-4.262-17.601-7.264c-2.685-1.438-5.954-1.228-8.432,0.544l-24.544,17.527l-24.368-24.359l17.496-24.48
			c1.813-2.482,2.044-5.785,0.592-8.496c-3.003-5.609-5.439-11.506-7.271-17.6c-0.874-2.924-3.335-5.096-6.344-5.6L128,273.225
			v-34.449l29.775-4.96c2.864-0.479,5.243-2.473,6.216-5.208c2.064-6.284,4.594-12.405,7.568-18.312
			c1.245-2.624,0.969-5.717-0.72-8.08l-17.528-24.544l24.36-24.368l24.479,17.496c2.484,1.811,5.787,2.038,8.496,0.584
			c5.61-3.002,11.506-5.435,17.601-7.264c2.924-0.874,5.096-3.334,5.6-6.344L238.776,128h34.448l4.96,29.776
			c0.504,3.01,2.676,5.471,5.6,6.344c6.095,1.829,11.99,4.262,17.601,7.264c2.685,1.439,5.954,1.228,8.432-0.544l24.544-17.528
			l24.36,24.36l-17.528,24.544C339.409,204.688,339.186,207.957,340.615,210.648L340.615,210.648z M340.848,137.2
			c-2.767-2.762-7.124-3.121-10.304-0.848l-26.112,18.656c-3.668-1.752-7.428-3.304-11.264-4.648l-5.28-31.672
			c-0.642-3.857-3.978-6.686-7.888-6.688h-48c-3.911,0.002-7.247,2.831-7.889,6.688l-5.279,31.672
			c-3.933,1.383-7.784,2.986-11.536,4.8c-5.032-3.936-13.112-9.696-25.84-18.792c-3.181-2.273-7.538-1.914-10.305,0.848L168,140.352
			V32h176v108.352L340.848,137.2z M56,32h32v32H48V40C48,35.582,51.581,32,56,32z M456,480H56c-4.419,0-8-3.582-8-8V80h48
			c4.418,0,8-3.582,8-8V32h48v124.352l-14.8,14.8c-2.763,2.766-3.121,7.124-0.849,10.304l18.744,26.24
			c-1.739,3.614-3.27,7.324-4.584,11.112l-31.824,5.304c-3.857,0.642-6.686,3.978-6.688,7.888v48c0.002,3.91,2.83,7.246,6.688,7.889
			l31.672,5.279c1.386,3.932,2.988,7.782,4.801,11.536c-3.937,5.032-9.696,13.112-18.792,25.84
			c-2.273,3.181-1.915,7.538,0.848,10.304l33.952,33.952c2.766,2.763,7.123,3.121,10.304,0.849l26.112-18.656
			c3.667,1.752,7.428,3.304,11.264,4.648l5.28,31.672c0.641,3.852,3.968,6.678,7.872,6.688h48c3.91-0.002,7.246-2.83,7.888-6.688
			l5.28-31.672c3.836-1.345,7.596-2.896,11.264-4.648l26.112,18.656c3.18,2.272,7.537,1.914,10.304-0.849l33.952-33.952
			c2.762-2.766,3.12-7.123,0.848-10.304l-18.656-26.12c1.75-3.666,3.302-7.424,4.648-11.256l31.672-5.279
			c3.857-0.643,6.687-3.979,6.688-7.889v-48c-0.001-3.911-2.83-7.247-6.688-7.888l-31.672-5.28
			c-1.344-3.836-2.896-7.596-4.648-11.264l18.656-26.112c2.272-3.181,1.914-7.538-0.848-10.304l-14.8-14.8V32h48v40
			c0,4.418,3.581,8,8,8h48v392C464,476.418,460.418,480,456,480z"/>
		<path fill="#EB7D16" d="M432,411.313l2.344,2.344l11.312-11.313l-16-16c-3.124-3.123-8.188-3.123-11.312,0l-16,16l11.312,11.313
			l2.345-2.344V448h-32v-36.688l2.344,2.344l11.312-11.313l-16-16c-3.124-3.123-8.188-3.123-11.312,0l-16,16l11.312,11.313
			l2.345-2.344V448h-16v16h96v-16h-16V411.313z"/>
	</g>
</g>
</svg>
