<?xml version="1.0" encoding="UTF-8" standalone="no"?>
<!DOCTYPE svg PUBLIC "-//W3C//DTD SVG 1.1//EN" "http://www.w3.org/Graphics/SVG/1.1/DTD/svg11.dtd">
<svg width="100%" height="100%" viewBox="0 0 596 842" version="1.1" xmlns="http://www.w3.org/2000/svg" xmlns:xlink="http://www.w3.org/1999/xlink" xml:space="preserve" xmlns:serif="http://www.serif.com/" style="fill-rule:evenodd;clip-rule:evenodd;stroke-linejoin:round;stroke-miterlimit:2;">
    <g id="Layer-1" serif:id="Layer 1">
        <g transform="matrix(1,0,0,1,293.749,425.255)">
            <path d="M0,-2.778L-0.006,-2.776L-0.02,-2.764L-0.047,-2.755C-0.047,-2.753 -0.151,-2.671 -0.219,-2.62C0.398,-2.286 0.806,-1.727 0.872,-1.104L1.009,0.193C1.009,0.197 1.045,0.687 1.065,0.89C1.962,0.253 2.222,-0.014 2.224,-0.016L2.25,-0.044C2.585,-0.331 2.77,-0.725 2.77,-1.159C2.77,-1.583 2.597,-2.014 2.277,-2.407C1.241,-3.668 0.049,-2.815 0,-2.778" style="fill:rgb(14,49,146);fill-rule:nonzero;"/>
        </g>
        <g transform="matrix(1,0,0,1,283.791,427.362)">
            <path d="M0,-12.413C-0.031,-12.374 -2.806,-8.986 -2.878,-4.274C-2.878,-4.274 -2.893,-4.073 -2.893,-3.805C-2.893,-2.774 -2.483,-0.123 1.472,2.336C1.487,2.349 2.986,3.337 5.621,1.888C5.621,1.888 7.464,0.884 7.516,0.853C7.51,0.785 7.314,-0.823 7.314,-0.823L7.283,-1.108C7.283,-1.121 7.287,-1.174 7.287,-1.174C7.287,-1.174 7.133,-2.639 7.094,-2.987C4.731,-1.633 2.968,-1.127 2.305,-1.711C2.283,-1.723 0.161,-3.608 1.067,-5.955C1.082,-6.002 2.814,-11.281 6.043,-11.18C6.481,-11.153 7.002,-11.034 7.259,-11.068C7.782,-11.14 8.286,-11.398 8.512,-12.302C8.554,-12.469 8.604,-12.726 8.604,-13.017C8.604,-13.617 8.385,-14.42 7.349,-14.818C7.359,-14.82 7.086,-14.924 6.61,-14.996C6.573,-15.005 2.876,-15.75 0,-12.413" style="fill:rgb(14,49,146);fill-rule:nonzero;"/>
        </g>
        <g transform="matrix(-0.676231,-0.736689,-0.736689,0.676231,291.163,423.613)">
            <path d="M-0.374,-1.952C0.008,-1.451 0.181,-0.832 0.101,-0.255C0.048,0.129 -0.121,0.467 -0.374,0.728C-0.62,-0.446 -0.795,-1.592 -0.912,-2.465C-0.723,-2.368 -0.529,-2.151 -0.374,-1.952" style="fill:rgb(255,0,0);fill-rule:nonzero;"/>
        </g>
        <g transform="matrix(1,0,0,1,290.878,426.455)">
            <path d="M0,-2.08C0.007,-2.016 0.215,-0.047 0.215,-0.047C0.215,-0.037 0.211,0.012 0.211,0.014L0.237,0.24C0.237,0.24 0.38,1.453 0.418,1.768C1.767,1.006 2.955,0.301 3.958,-0.322L3.961,-0.322C3.954,-0.385 3.866,-1.269 3.866,-1.269L3.872,-1.266C3.868,-1.277 3.865,-1.289 3.864,-1.299L3.733,-2.557C3.674,-3.113 3.16,-3.73 2.705,-3.848C2.05,-3.381 1.062,-2.709 0,-2.08" style="fill:rgb(57,0,112);fill-rule:nonzero;"/>
        </g>
        <g transform="matrix(1,0,0,1,303.278,434.369)">
            <path d="M0,-12.703C-0.481,-12.453 -0.843,-12.033 -0.988,-11.552C-1.11,-11.152 -1.075,-10.744 -0.888,-10.396C-0.888,-10.396 -0.314,-9.482 -0.056,-8.988C0.235,-8.435 0.941,-7.113 0.983,-6.066C1.019,-5.177 0.58,-4.632 0.342,-4.47C0.104,-4.306 -0.655,-3.822 -1.618,-3.536C-5.001,-2.527 -7.02,-4.406 -7.046,-4.429C-7.824,-5.07 -8.241,-7.017 -8.429,-8.269C-9.448,-7.636 -10.642,-6.941 -11.972,-6.193C-11.658,-3.97 -10.669,-2.863 -10.661,-2.855C-8.57,-0.308 -5.851,0.321 -5.809,0.329C-4.287,0.481 -3.528,0.323 -3.521,0.321C-2.278,0.171 0.313,-0.904 1.185,-1.46C2.476,-2.181 4.655,-3.329 4.812,-4.874L4.842,-5.484C4.842,-6.847 4.416,-7.972 4.412,-7.982L4.43,-7.956L4.373,-8.074L4.04,-8.82C3.558,-9.923 2.491,-12.052 2.447,-12.144C2.019,-12.933 0.921,-13.184 0,-12.703" style="fill:rgb(255,0,0);fill-rule:nonzero;"/>
        </g>
        <g transform="matrix(1,0,0,1,310.254,426.155)">
            <path d="M0,-12.785C0,-12.785 -0.176,-12.451 -0.221,-12.367C0.635,-12.137 1.381,-11.666 2.018,-10.983C2.027,-10.974 3.569,-9.604 3.569,-7.35C3.569,-6.403 3.293,-5.437 2.746,-4.482C2.686,-4.356 1.17,-1.295 -1.208,-0.655C-1.225,-0.649 -2.79,-0.272 -3.291,-0.25C-3.381,-0.248 -3.472,-0.229 -3.558,-0.196C-4.01,-0.02 -4.325,0.607 -4.325,1.328C-4.325,1.578 -4.287,1.822 -4.212,2.056C-3.996,2.732 -3.473,3.238 -2.849,3.369C-2.59,3.422 -2.336,3.41 -2.096,3.328C-2.092,3.326 -2.056,3.318 -2.056,3.318C-1.394,3.156 0.807,2.607 1.264,2.379C1.5,2.283 3.578,1.398 4.834,-0.481L5.617,-1.67C6.684,-3.254 7.582,-6.091 7.582,-8.351C7.582,-8.713 7.555,-9.049 7.5,-9.352C7.488,-9.406 6.261,-14.601 1.524,-16.207C1.379,-15.492 0.261,-13.319 0,-12.785" style="fill:rgb(255,102,0);fill-rule:nonzero;"/>
        </g>
        <g transform="matrix(1,0,0,1,305.31,413.499)">
            <path d="M0,-2.778C-0.505,-2.491 -0.786,-1.946 -0.786,-1.272C-0.786,-0.934 -0.755,-0.745 -0.647,-0.366C-0.378,0.603 0.857,1.007 1.239,0.695C1.042,0.343 0.97,0.08 0.97,-0.288C0.97,-0.606 1.04,-0.905 1.181,-1.18C1.183,-1.182 1.765,-2.236 1.765,-2.236C2.058,-2.755 2.408,-3.373 2.622,-3.785C1.758,-3.524 0.536,-3.147 0,-2.778" style="fill:rgb(255,102,0);fill-rule:nonzero;"/>
        </g>
        <g transform="matrix(1,0,0,1,303.679,409.538)">
            <path d="M0,-10.341L-0.011,-10.341C-0.038,-10.337 -3.011,-9.874 -6.113,-7.707C-6.656,-7.326 -7.892,-6.312 -7.557,-5.131C-7.397,-4.567 -7.153,-4.216 -6.817,-4.06C-6.432,-3.882 -5.889,-3.95 -5.204,-4.266C-5.204,-4.266 -4.477,-4.714 -1.071,-6.532C-1.05,-6.544 1.174,-7.701 2.336,-5.738C2.336,-5.738 2.64,-5.257 3.964,-3.193C3.988,-3.153 4.767,-1.905 4.398,-0.658C4.311,-0.353 4.218,-0.075 4.118,0.233C5.025,-0.003 5.495,0 5.646,0.055C6.427,0.016 7.094,0.223 7.743,0.424L8.115,0.528C8.296,-0.113 8.399,-0.972 8.399,-1.557C8.399,-2.376 8.204,-3.138 7.919,-3.64C7.836,-3.787 5.898,-7.167 5.163,-8.227C5.101,-8.341 3.632,-10.869 0,-10.341" style="fill:rgb(218,2,127);fill-rule:nonzero;"/>
        </g>
        <g transform="matrix(1,0,0,1,309.431,415.06)">
            <path d="M0,-1.563L-0.468,-1.542C-1.517,-1.456 -2.441,-1.121 -3.058,-0.842C-2.815,-0.518 -2.619,-0.394 -2.388,-0.27C-2.05,-0.087 -1.687,-0.016 -1.314,0L-1.32,0.002C-1.292,0 -1.21,-0.004 -0.91,-0.018L-0.87,-0.02C-0.274,-0.113 0.327,-0.461 0.642,-1.114C0.642,-1.116 0.753,-1.309 0.829,-1.499C0.534,-1.542 0.259,-1.565 0,-1.563" style="fill:rgb(218,2,127);fill-rule:nonzero;"/>
        </g>
        <g transform="matrix(1,0,0,1,309.471,414.204)">
            <path d="M0,-4.718L-0.02,-4.718C-0.028,-4.718 -0.822,-4.743 -1.669,-4.453C-1.824,-4.089 -2.371,-3.07 -2.875,-2.139L-3.188,-1.559C-3.301,-1.35 -3.359,-1.116 -3.359,-0.871C-3.359,-0.561 -3.253,-0.245 -3.067,0.049C-2.496,-0.209 -1.624,-0.525 -0.621,-0.604C-0.621,-0.604 -0.084,-0.641 0.663,-0.389C0.699,-0.456 1.02,-1.071 1.02,-1.071C1.034,-1.092 2.141,-3.153 2.34,-4.242C1.771,-4.51 0.812,-4.767 0,-4.718" style="fill:rgb(152,0,50);fill-rule:nonzero;"/>
        </g>
        <g transform="matrix(1,0,0,1,301.331,412.486)">
            <path d="M0,4.415C0.483,4.103 0.798,3.632 0.798,3.099C0.798,2.471 0.365,1.928 -0.267,1.634C0.12,1.384 0.373,1.005 0.373,0.575C0.373,0.067 0.021,-0.372 -0.499,-0.606C-0.177,-0.808 0.036,-1.116 0.036,-1.47C0.036,-1.893 -0.271,-2.257 -0.713,-2.439C-0.44,-2.595 -0.261,-2.849 -0.261,-3.14C-0.261,-3.614 -0.742,-3.998 -1.339,-3.998C-1.932,-3.998 -2.415,-3.614 -2.415,-3.14C-2.415,-2.849 -2.233,-2.595 -1.96,-2.439C-2.405,-2.257 -2.712,-1.893 -2.712,-1.47C-2.712,-1.116 -2.501,-0.808 -2.175,-0.606C-2.696,-0.372 -3.05,0.067 -3.05,0.575C-3.05,1.005 -2.798,1.384 -2.407,1.634C-3.042,1.928 -3.475,2.471 -3.475,3.099C-3.475,3.632 -3.158,4.103 -2.675,4.415C-3.481,4.785 -4.03,5.472 -4.03,6.268C-4.03,7.451 -2.823,8.413 -1.339,8.413C0.148,8.413 1.354,7.451 1.354,6.268C1.354,5.472 0.805,4.785 0,4.415" style="fill:rgb(255,102,0);fill-rule:nonzero;"/>
        </g>
        <g transform="matrix(1,0,0,1,287.291,413.938)">
            <path d="M0,-12.718C-2.451,-11.562 -3.461,-8.33 -3.473,-8.298C-3.953,-7 -4.051,-5.34 -4.051,-4.174C-4.051,-3.393 -3.662,-1.849 -3.592,-1.466C-3.246,0.567 -1.606,0.311 -1.606,0.311C-1.258,0.296 -1.009,0.221 -0.68,0.027C-0.012,-0.37 0.396,-0.938 0.337,-1.752C0.306,-2.098 -0.119,-3.76 -0.119,-4.098C-0.119,-5.811 0.262,-6.799 0.278,-6.839C0.743,-7.965 1.43,-8.559 2.324,-8.606C4.462,-8.719 6.973,-5.562 6.99,-5.532C7.27,-5.058 7.613,-4.787 8.012,-4.724C8.735,-4.611 9.444,-5.232 9.454,-5.239C9.465,-5.251 9.473,-5.255 9.473,-5.255C9.925,-5.558 10.236,-6.017 10.333,-6.51L10.36,-6.811C10.36,-7.115 10.271,-7.406 10.104,-7.646C10.102,-7.65 10.051,-7.715 9.715,-8.152C6.553,-12.071 4.086,-12.64 4.062,-12.643L4.041,-12.65L4.027,-12.654C2.553,-13.263 1.196,-13.285 0,-12.718" style="fill:rgb(0,109,44);fill-rule:nonzero;"/>
        </g>
        <g transform="matrix(1,0,0,1,272.75,438.971)">
            <path d="M0,0.953C0,0.953 24.76,-5.713 53.234,0.953C53.234,0.953 27.236,6.666 0,0.953" style="fill:rgb(0,109,44);fill-rule:nonzero;"/>
        </g>
        <g transform="matrix(1,0,0,1,315.274,434.096)">
            <path d="M0,2.895C0.146,0.934 -1.323,-0.773 -3.284,-0.918C-5.241,-1.062 -6.949,0.405 -7.095,2.366C-7.104,2.497 -7.106,2.622 -7.103,2.749C-4.866,3.081 -2.577,3.479 -0.247,3.957C-0.113,3.625 -0.026,3.268 0,2.895" style="fill:rgb(0,101,50);fill-rule:nonzero;"/>
        </g>
        <g transform="matrix(1,0,0,1,315.274,434.096)">
            <path d="M0,2.895C0.146,0.934 -1.323,-0.773 -3.284,-0.918C-5.241,-1.062 -6.949,0.405 -7.095,2.366C-7.104,2.497 -7.106,2.622 -7.103,2.749C-4.866,3.081 -2.577,3.479 -0.247,3.957C-0.113,3.625 -0.026,3.268 0,2.895" style="fill:rgb(0,109,44);fill-rule:nonzero;"/>
        </g>
        <g transform="matrix(1,0,0,1,315.027,439.18)">
            <path d="M0,-1.127C-0.562,0.271 -1.98,1.209 -3.563,1.092C-5.394,0.955 -6.797,-0.541 -6.855,-2.336C-4.619,-2.004 -2.33,-1.606 0,-1.127" style="fill:white;fill-rule:nonzero;"/>
        </g>
        <g transform="matrix(0.352047,-0.935982,-0.935982,-0.352047,314.037,434.56)">
            <path d="M-1.044,-0.506C-1.411,-0.506 -1.472,-0.13 -1.473,0.395C-1.47,0.917 -1.411,1.391 -1.044,1.391C-0.676,1.391 -0.142,0.92 -0.141,0.393C-0.141,-0.131 -0.678,-0.507 -1.044,-0.506" style="fill:white;fill-rule:nonzero;"/>
        </g>
    </g>
</svg>
