<?xml version="1.0" encoding="UTF-8" standalone="no"?>
<!DOCTYPE svg PUBLIC "-//W3C//DTD SVG 1.1//EN" "http://www.w3.org/Graphics/SVG/1.1/DTD/svg11.dtd">
<svg width="100%" height="100%" viewBox="0 0 2481 3508" version="1.1" xmlns="http://www.w3.org/2000/svg" xmlns:xlink="http://www.w3.org/1999/xlink" xml:space="preserve" xmlns:serif="http://www.serif.com/" style="fill-rule:evenodd;clip-rule:evenodd;stroke-linejoin:round;stroke-miterlimit:2;">
    <g id="Layer-1" serif:id="Layer 1" transform="matrix(4.16667,0,0,4.16667,0,0)">
        <g transform="matrix(1,0,0,1,430.712,194.176)">
            <path d="M0,-25.566C-5.498,-25.566 -8.325,-21.941 -8.772,-21.398C-10.159,-24.016 -12.711,-25.566 -16.059,-25.566C-20.901,-25.566 -23.654,-22.754 -24.105,-22.298C-24.306,-23.053 -25.297,-25.106 -28.423,-25.106C-29.326,-25.106 -30.648,-24.82 -30.758,-24.793C-30.627,-24.203 -30.034,-21.342 -30.034,-17.394L-30.034,0L-23.673,0L-23.673,-17.729C-23.547,-17.841 -21.164,-20.253 -18.3,-20.253C-15.379,-20.253 -14.014,-18.117 -14.014,-15.194L-14.014,0L-7.622,0L-7.622,-17.734C-7.496,-17.857 -5.16,-20.253 -2.253,-20.253C0.658,-20.253 1.992,-18.117 1.992,-15.194L1.992,0L8.415,0L8.415,-16.188C8.415,-21.868 5.182,-25.566 0,-25.566" style="fill:rgb(245,128,37);fill-rule:nonzero;"/>
        </g>
        <g transform="matrix(1,0,0,1,360.888,173.759)">
            <path d="M0,15.825C-4.327,15.825 -7.414,12.405 -7.414,7.939C-7.414,2.962 -3.904,0 -0.002,0C2.104,0 2.989,0.641 4.383,0.641C5.871,0.641 6.665,-0.08 7.402,-1.515C7.809,-2.307 8.049,-2.765 8.049,-2.765C7.732,-2.967 4.505,-5.154 -0.967,-5.154C-8.992,-5.154 -13.792,0.595 -13.792,7.939C-13.792,15.95 -8.304,20.979 -0.967,20.979C4.353,20.979 7.577,18.808 8.145,18.403L5.936,14.046C5.445,14.357 3.172,15.825 0,15.825" style="fill:rgb(245,128,37);fill-rule:nonzero;"/>
        </g>
        <g transform="matrix(1,0,0,1,286.142,184.444)">
            <path d="M0,-5.535C0,-8.391 2.007,-11.045 4.816,-11.045C7.961,-11.045 9.696,-8.31 9.747,-5.535L0,-5.535ZM4.915,-15.832C-1.186,-15.832 -6.336,-10.869 -6.336,-2.743C-6.336,5.578 -1.344,10.297 6.117,10.297C12.046,10.297 15.119,7.703 15.489,7.463C15.489,7.463 14.91,6.523 14.749,6.259C13.917,4.896 12.969,4.458 11.919,4.458C9.821,4.458 9.551,5.332 6.706,5.332C1.827,5.332 0.137,1.523 0.019,-1.015L16.354,-1.015L16.354,-2.906C16.354,-10.699 11.868,-15.832 4.915,-15.832" style="fill:rgb(245,128,37);fill-rule:nonzero;"/>
        </g>
        <g transform="matrix(1,0,0,1,313.396,163.476)">
            <path d="M0,23.662L0,-2.386C0,-5.327 -1.962,-7.603 -5.008,-7.603L-6.371,-7.603L-6.371,26.218C-6.371,29.331 -4.443,31.265 -1.091,31.265C3.041,31.265 4.281,28.324 4.281,25.556C4.108,25.648 3.235,26.001 2.349,26.001C0.876,26.001 0,25.144 0,23.662" style="fill:rgb(245,128,37);fill-rule:nonzero;"/>
        </g>
        <g transform="matrix(1,0,0,1,270.805,170.065)">
            <path d="M0,16.193L0,3.807L5.326,3.807L7.181,-0.987L0,-0.987L0,-8.475C0,-8.475 -0.569,-8.481 -0.593,-8.475C-3.429,-8.475 -6.367,-7.272 -6.367,-1.046L-6.367,-0.987L-11.075,-0.987L-11.075,3.805L-6.367,3.805L-6.367,18.396C-6.367,22.527 -3.923,24.674 -0.459,24.674C2.344,24.674 5.959,23.821 5.959,18.271C5.74,18.405 4.382,19.281 2.893,19.281C0.819,19.281 0,18.017 0,16.193" style="fill:rgb(245,128,37);fill-rule:nonzero;"/>
        </g>
        <g transform="matrix(1,0,0,1,326.107,184.444)">
            <path d="M0,-5.535C0,-8.391 2.007,-11.045 4.816,-11.045C7.962,-11.045 9.696,-8.31 9.746,-5.535L0,-5.535ZM4.915,-15.832C-1.186,-15.832 -6.335,-10.869 -6.335,-2.743C-6.335,5.578 -1.345,10.297 6.117,10.297C12.045,10.297 15.118,7.703 15.489,7.463C15.489,7.463 14.911,6.523 14.75,6.259C13.917,4.896 12.968,4.458 11.919,4.458C9.82,4.458 9.551,5.332 6.707,5.332C1.828,5.332 0.136,1.523 0.019,-1.015L16.355,-1.015L16.355,-2.906C16.355,-10.699 11.869,-15.832 4.915,-15.832" style="fill:rgb(245,128,37);fill-rule:nonzero;"/>
        </g>
        <g transform="matrix(1,0,0,1,383.627,173.506)">
            <path d="M0,16.332C3.908,16.332 6.158,12.974 6.158,8.177C6.158,3.425 3.959,0 0,0C-3.845,0 -6.149,3.328 -6.149,8.177C-6.149,12.854 -3.954,16.332 0,16.332M0,21.234C-7.795,21.234 -12.488,16.088 -12.488,8.177C-12.488,0.301 -7.856,-4.902 0,-4.902C7.876,-4.902 12.497,0.301 12.497,8.177C12.497,15.623 8.224,21.234 0,21.234" style="fill:rgb(245,128,37);fill-rule:nonzero;"/>
        </g>
        <g transform="matrix(1,0,0,1,178.463,176.372)">
            <path d="M0,-10.041C-3.846,-11.839 -7.004,-13.292 -7.004,-16.231C-7.004,-18.477 -5.207,-20.112 -1.655,-20.112C-0.349,-20.112 0.719,-19.958 1.822,-19.755C2.4,-19.656 3.016,-19.571 3.525,-19.571C6.626,-19.571 8.376,-21.42 9.541,-24.929L10.022,-26.363C9.527,-26.565 4.459,-28.79 -2.147,-28.79C-12.659,-28.79 -18.208,-22.048 -18.205,-15.055C-18.205,-11.526 -17.1,-8.971 -15.371,-6.956C-13.143,-4.366 -9.966,-2.671 -6.994,-1.222C-2.664,0.903 1.245,2.473 1.245,5.624C1.247,8.417 -1.642,10.008 -5.502,10.008C-10.792,10.008 -15.415,6.984 -16.005,6.62L-20.348,14.761C-19.576,15.197 -13.982,18.749 -4.776,18.749C5.033,18.742 12.461,13.119 12.461,4.464C12.461,-4.146 5.576,-7.339 0,-10.041" style="fill:rgb(228,24,55);fill-rule:nonzero;"/>
        </g>
        <g transform="matrix(1,0,0,1,216.832,172.933)">
            <path d="M0,-2.581L17.794,-24.399L5.116,-24.399L-9.077,-5.572L-9.289,-5.572L-9.289,-24.399L-19.739,-24.399L-19.736,21.818L-19.115,21.818C-14.597,21.818 -9.218,19.729 -9.218,12.181L-9.218,1.57L-9.006,1.57L5.461,21.243L18.76,21.243L0,-2.581Z" style="fill:rgb(228,24,55);fill-rule:nonzero;"/>
        </g>
        <g transform="matrix(1,0,0,1,235.219,135.557)">
            <path d="M0,-36.531C-3.679,-35.836 -9.135,-32.497 -9.117,-26.591C-9.103,-21.227 -4.717,-17.977 -4.704,-10.949C-4.683,-5.663 -7.597,-2.103 -10.748,-0.129C-9.475,-0.241 -8.079,-0.315 -6.545,-0.318C-3.325,-0.326 -1.385,-0.019 -1.265,0L15.242,-20.255C10.658,-27.118 5.305,-32.443 0,-36.531" style="fill:rgb(228,24,55);fill-rule:nonzero;"/>
        </g>
        <g transform="matrix(1,0,0,1,249.085,115.302)">
            <path d="M0,38.422C2.081,35.188 2.341,30.033 2.518,24.782C2.713,19.885 3.734,16.199 10.287,16.176C11.738,16.172 13.122,16.37 15.625,16.363C25.224,16.321 31.491,13.016 35.389,10.847C27.424,5.768 15.799,0.584 1.376,0C0.436,2.651 -6.874,22.975 -7.426,24.615C-7.343,24.714 -6.062,26.148 -4.464,28.946C-2.106,32.79 -0.839,36.046 0,38.422" style="fill:rgb(228,24,55);fill-rule:nonzero;"/>
        </g>
        <g transform="matrix(1,0,0,1,214.221,86.9178)">
            <path d="M0,50.206C-0.834,50.211 -1.25,49.656 -1.363,48.694C-1.469,47.74 -5.598,9.972 -6.212,4.257C-6.302,3.422 -6.508,1.89 -6.511,1.344C-6.513,0.464 -5.939,0.004 -5.264,0.003C-3.308,-0.005 7.351,2.492 18.663,10.42C15.404,11.34 9.508,14.73 9.535,21.749C9.556,27.962 14.004,31.381 14.028,37.613C14.063,47.75 2.412,50.202 0,50.206" style="fill:rgb(245,128,37);fill-rule:nonzero;"/>
        </g>
        <g transform="matrix(1,0,0,1,250.033,129.383)">
            <path d="M0,27.037C0.178,27.507 0.345,27.903 0.513,28.18C0.773,28.62 1.112,28.821 1.528,28.82C1.792,28.816 2.114,28.728 2.471,28.568C3.343,28.167 37.809,12.122 43.007,9.724C43.761,9.362 45.189,8.724 45.66,8.447C46.148,8.17 46.372,7.764 46.372,7.35C46.37,7.119 46.302,6.886 46.171,6.674C45.522,5.623 42.187,2.083 36.612,-1.784C32.185,0.653 25.272,4.422 14.99,4.465C12.47,4.467 11.9,4.298 10.179,4.306C5.16,4.323 3.906,6.47 3.723,10.87C3.692,11.702 3.678,12.821 3.629,14.048C3.47,17.98 3.005,23.406 0,27.037" style="fill:rgb(245,128,37);fill-rule:nonzero;"/>
        </g>
        <g transform="matrix(1,0,0,1,178.465,352.414)">
            <path d="M0,-10.037C-3.846,-11.838 -7.004,-13.291 -7.004,-16.23C-7.004,-18.476 -5.207,-20.111 -1.656,-20.111C-0.349,-20.111 0.721,-19.957 1.823,-19.756C2.398,-19.654 3.016,-19.57 3.526,-19.57C6.627,-19.57 8.378,-21.42 9.542,-24.93L10.023,-26.363C9.528,-26.565 4.461,-28.791 -2.148,-28.791C-12.66,-28.791 -18.211,-22.049 -18.208,-15.053C-18.208,-11.523 -17.103,-8.971 -15.373,-6.955C-13.143,-4.363 -9.968,-2.668 -6.995,-1.219C-2.665,0.906 1.245,2.479 1.245,5.629C1.248,8.424 -1.642,10.012 -5.502,10.012C-10.793,10.012 -15.417,6.988 -16.007,6.625L-20.351,14.766C-19.579,15.203 -13.983,18.754 -4.776,18.754C5.034,18.746 12.463,13.125 12.463,4.467C12.463,-4.144 5.577,-7.336 0,-10.037" style="fill:rgb(228,24,55);fill-rule:nonzero;"/>
        </g>
        <g transform="matrix(1,0,0,1,216.838,348.978)">
            <path d="M0,-2.581L17.8,-24.402L5.119,-24.402L-9.076,-5.573L-9.289,-5.573L-9.289,-24.402L-19.739,-24.402L-19.738,21.821L-19.116,21.821C-14.596,21.821 -9.217,19.731 -9.217,12.183L-9.217,1.569L-9.005,1.569L5.464,21.247L18.763,21.247L0,-2.581Z" style="fill:rgb(228,24,55);fill-rule:nonzero;"/>
        </g>
        <g transform="matrix(1,0,0,1,235.23,311.598)">
            <path d="M0,-36.536C-3.68,-35.843 -9.136,-32.503 -9.118,-26.596C-9.105,-21.23 -4.718,-17.98 -4.704,-10.953C-4.684,-5.665 -7.599,-2.104 -10.75,-0.129C-9.478,-0.242 -8.08,-0.315 -6.546,-0.318C-3.326,-0.328 -1.386,-0.02 -1.265,0L15.244,-20.259C10.66,-27.123 5.306,-32.449 0,-36.536" style="fill:rgb(228,24,55);fill-rule:nonzero;"/>
        </g>
        <g transform="matrix(1,0,0,1,249.098,291.339)">
            <path d="M0,38.427C2.081,35.195 2.341,30.039 2.517,24.786C2.713,19.888 3.734,16.202 10.289,16.18C11.738,16.175 13.124,16.374 15.627,16.366C25.227,16.324 31.495,13.018 35.394,10.848C27.428,5.771 15.801,0.586 1.375,0C0.435,2.652 -6.876,22.978 -7.428,24.618C-7.345,24.716 -6.063,26.154 -4.464,28.949C-2.106,32.795 -0.841,36.052 0,38.427" style="fill:rgb(228,24,55);fill-rule:nonzero;"/>
        </g>
        <g transform="matrix(1,0,0,1,214.23,262.951)">
            <path d="M0,50.214C-0.836,50.219 -1.252,49.662 -1.363,48.702C-1.469,47.747 -5.6,9.974 -6.213,4.256C-6.303,3.421 -6.511,1.89 -6.515,1.343C-6.516,0.463 -5.943,0.004 -5.266,0.004C-3.31,-0.005 7.352,2.492 18.665,10.423C15.405,11.343 9.507,14.733 9.536,21.751C9.557,27.966 14.004,31.385 14.029,37.619C14.064,47.757 2.411,50.209 0,50.214" style="fill:rgb(245,128,37);fill-rule:nonzero;"/>
        </g>
        <g transform="matrix(1,0,0,1,250.046,305.421)">
            <path d="M0,27.04C0.178,27.511 0.344,27.907 0.513,28.183C0.771,28.626 1.113,28.825 1.528,28.823C1.792,28.821 2.115,28.733 2.471,28.571C3.343,28.173 37.814,12.123 43.013,9.725C43.766,9.364 45.196,8.726 45.668,8.45C46.156,8.171 46.377,7.765 46.377,7.353C46.376,7.12 46.307,6.888 46.177,6.674C45.53,5.624 42.193,2.084 36.617,-1.785C32.189,0.655 25.275,4.424 14.992,4.466C12.471,4.469 11.902,4.298 10.182,4.307C5.159,4.323 3.906,6.472 3.722,10.873C3.691,11.703 3.678,12.823 3.63,14.049C3.471,17.984 3.004,23.409 0,27.04" style="fill:rgb(245,128,37);fill-rule:nonzero;"/>
        </g>
        <g transform="matrix(1,0,0,1,288.19,333.707)">
            <path d="M0,17.182L0,13.274L-11.458,13.274L-11.458,10.485L-2.159,10.485L-2.159,6.578L-11.458,6.578L-11.458,3.905L-0.662,3.905L-0.662,0L-12.939,0C-15.203,0 -17.042,1.832 -17.042,4.096L-17.042,13.077C-17.042,15.344 -15.203,17.182 -12.939,17.182L0,17.182Z" style="fill:rgb(245,128,37);fill-rule:nonzero;"/>
        </g>
        <g transform="matrix(1,0,0,1,304.732,353.331)">
            <path d="M0,10.279L0,4.101C0,1.836 -1.841,0 -4.103,0L-5.585,0L-5.585,10.279L0,10.279Z" style="fill:rgb(245,128,37);fill-rule:nonzero;"/>
        </g>
        <g transform="matrix(1,0,0,1,276.732,370.225)">
            <path d="M0,-10.281L0,-4.103C0,-1.838 1.837,0 4.101,0L5.583,0L5.583,-10.281L0,-10.281Z" style="fill:rgb(245,128,37);fill-rule:nonzero;"/>
        </g>
        <g transform="matrix(1,0,0,1,0,-157.414)">
            <rect x="287.548" y="497.699" width="4.127" height="3.906" style="fill:rgb(245,128,37);"/>
        </g>
        <g transform="matrix(1,0,0,1,0,-131.324)">
            <rect x="276.732" y="484.654" width="22.967" height="3.906" style="fill:rgb(245,128,37);"/>
        </g>
        <g transform="matrix(1,0,0,1,0,-118.578)">
            <rect x="276.732" y="478.281" width="22.967" height="3.906" style="fill:rgb(245,128,37);"/>
        </g>
        <g transform="matrix(1,0,0,1,0,-105.346)">
            <rect x="281.935" y="471.665" width="23.803" height="3.906" style="fill:rgb(245,128,37);"/>
        </g>
        <g transform="matrix(-1,0,0,1,603.879,-156.208)">
            <rect x="299.147" y="489.915" width="5.585" height="18.268" style="fill:rgb(245,128,37);"/>
        </g>
        <g transform="matrix(-1,0,0,1,588.213,-156.208)">
            <rect x="291.316" y="489.915" width="5.581" height="18.268" style="fill:rgb(245,128,37);"/>
        </g>
        <g transform="matrix(1,0,0,1,0,-151.93)">
            <rect x="330.404" y="494.956" width="4.126" height="3.908" style="fill:rgb(245,128,37);"/>
        </g>
        <g transform="matrix(1,0,0,1,346.792,370.225)">
            <path d="M0,-36.518L0,-4.104C0,-1.838 -1.843,0 -4.104,0L-5.587,0L-5.587,-36.518L0,-36.518Z" style="fill:rgb(245,128,37);fill-rule:nonzero;"/>
        </g>
        <g transform="matrix(1,0,0,1,338.821,370.225)">
            <path d="M0,-36.518L0,-4.104C0,-1.838 -1.841,0 -4.103,0L-5.585,0L-5.585,-36.518L0,-36.518Z" style="fill:rgb(245,128,37);fill-rule:nonzero;"/>
        </g>
        <g transform="matrix(1,0,0,1,0,-151.93)">
            <rect x="313.825" y="494.956" width="15.415" height="3.908" style="fill:rgb(245,128,37);"/>
        </g>
        <g transform="matrix(1,0,0,1,0,-131.368)">
            <rect x="318.851" y="484.677" width="11.938" height="3.904" style="fill:rgb(245,128,37);"/>
        </g>
        <g transform="matrix(1,0,0,1,0,-170.572)">
            <rect x="313.825" y="504.279" width="10.392" height="3.904" style="fill:rgb(245,128,37);"/>
        </g>
        <g transform="matrix(1,0,0,1,329.24,333.708)">
            <path d="M0,10.279L0,4.101C0,1.834 -1.839,0 -4.099,0L-5.581,0L-5.581,10.279L0,10.279Z" style="fill:rgb(245,128,37);fill-rule:nonzero;"/>
        </g>
        <g transform="matrix(1,0,0,1,313.825,357.213)">
            <path d="M0,-10.988L0,-4.101C0,-1.838 1.837,0 4.099,0L5.581,0L5.581,-10.988L0,-10.988Z" style="fill:rgb(245,128,37);fill-rule:nonzero;"/>
        </g>
        <g transform="matrix(1,0,0,1,0,-170.572)">
            <rect x="358.586" y="504.279" width="23.148" height="3.904" style="fill:rgb(245,128,37);"/>
        </g>
        <g transform="matrix(1,0,0,1,0,-156.672)">
            <rect x="357.356" y="497.328" width="25.081" height="3.906" style="fill:rgb(245,128,37);"/>
        </g>
        <g transform="matrix(1,0,0,1,0,-126.864)">
            <rect x="358.544" y="482.425" width="28.527" height="3.904" style="fill:rgb(245,128,37);"/>
        </g>
        <g transform="matrix(1,0,0,1,0,-105.346)">
            <rect x="363.787" y="471.665" width="18.218" height="3.906" style="fill:rgb(245,128,37);"/>
        </g>
        <g transform="matrix(1,0,0,1,0,-140.14)">
            <rect x="354.45" y="489.06" width="36.372" height="3.91" style="fill:rgb(245,128,37);"/>
        </g>
        <g transform="matrix(1,0,0,1,387.171,333.707)">
            <path d="M0,13.686L0,4.102C0,1.834 -1.839,0 -4.102,0L-5.584,0L-5.584,13.686L0,13.686Z" style="fill:rgb(245,128,37);fill-rule:nonzero;"/>
        </g>
        <g transform="matrix(1,0,0,1,387.071,370.225)">
            <path d="M0,-13.686L0,-4.104C0,-1.838 -1.84,0 -4.104,0L-5.584,0L-5.584,-13.686L0,-13.686Z" style="fill:rgb(245,128,37);fill-rule:nonzero;"/>
        </g>
        <g transform="matrix(1,0,0,1,358.544,370.225)">
            <path d="M0,-13.686L0,-4.104C0,-1.838 1.841,0 4.101,0L5.583,0L5.583,-13.686L0,-13.686Z" style="fill:rgb(245,128,37);fill-rule:nonzero;"/>
        </g>
        <g transform="matrix(-1,0,0,1,739.853,-146.85)">
            <rect x="367.135" y="490.792" width="5.583" height="7.156" style="fill:rgb(245,128,37);"/>
        </g>
    </g>
</svg>
