<?xml version="1.0" encoding="utf-8"?>
<svg id="textSample" image-rendering="optimizeQuality" baseProfile="basic" version="1.1" x="0px" y="0px" width="550" height="154" xmlns="http://www.w3.org/2000/svg" xmlns:xlink="http://www.w3.org/1999/xlink">
  <defs>
    <linearGradient id="Gradient_1" gradientUnits="userSpaceOnUse" x1="-510.900" y1="0" x2="510.900" y2="0" spreadMethod="pad">
      <stop offset="0%" stop-color="#F00"/>
      <stop offset="16.470%" stop-color="#FF0"/>
      <stop offset="36.470%" stop-color="#0F0"/>
      <stop offset="49.803%" stop-color="#0FF"/>
      <stop offset="66.666%" stop-color="#00F"/>
      <stop offset="83.137%" stop-color="#F0F"/>
      <stop offset="100%" stop-color="#F00"/>
    </linearGradient>
  </defs>
  <g id="Scene-1" overflow="visible">
    <g>
      <g id="Layer2_0_FILL">
        <path fill="#231916" stroke="none" d="M65.7 49.4Q60.45 46.85 52.3 46.85L28.35 46.85 28.35 99.35 52.5 99.35Q57.85 99.35 61.7 98.4 65.5 97.5 71.25 92.75 76.95 87.95 76.95 74.1L76.95 70.95Q76.95 67 76.1 63.65 75.2 60.3 73.05 56.15 70.85 52 65.7 49.4M39.35 90.2L39.35 55.95 52.15 55.95Q53.7 55.95 55.2 56.05 56.75 56.2 58.3 56.65 59.95 57 61.85 59.2 63.8 61.45 64.4 65.05 65 68.75 65 73.1 65 77.65 64.4 81.25 63.8 84.9 61.6 87.35 59.75 89.25 57.65 89.75 55.5 90.2 52.15 90.2L39.35 90.2M154.15 68.8L154.15 60.85 139.3 60.85Q134.85 60.85 131.1 61.95 127.3 63 123.6 67.15 119.85 71.25 119.85 80.05 119.85 88.8 124.7 94.05 129.45 99.35 139.3 99.35L154.15 99.35 154.15 91.35 140.65 91.35Q137.2 91.35 135.3 90.95 133.3 90.35 132.25 88.8 131.2 87.2 131.2 84.2L154.15 84.2 154.15 76.1 131.2 76.1Q131.2 73.1 132.55 71.4 133.65 69.85 135.5 69.3 137.4 68.8 140.7 68.8L154.15 68.8M115.65 68.8L115.65 60.85 100.8 60.85Q96.4 60.85 92.6 61.95 88.8 63 85.1 67.15 81.4 71.25 81.4 80.05 81.4 88.8 86.15 94.05 90.9 99.35 100.8 99.35L115.65 99.35 115.65 91.35 102.1 91.35Q98.75 91.35 96.8 90.95 94.8 90.35 93.8 88.8 92.7 87.2 92.7 84.2L115.65 84.2 115.65 76.1 92.7 76.1Q92.7 73.1 94 71.4 95.1 69.85 97 69.3 98.85 68.8 102.2 68.8L115.65 68.8M193.8 65.7Q191.45 63.35 187.85 62.05 184.3 60.85 180.2 60.85L160.75 60.85 160.75 113.15 170.8 113.15 170.8 99.35 179.65 99.35Q182.9 99.35 185.65 98.85 188.3 98.35 190.7 97.05 193 95.85 194.9 93.5 199.05 87.9 199.05 80.5L199.05 79.1Q199.05 77 198.7 75.15 198.25 73.3 197.5 71.5 196.15 68.05 193.8 65.7M170.8 69.05L177.2 69.05Q182.75 69.05 185.55 71.1 188.35 73.1 188.35 79.1L188.35 79.85Q188.35 85 186.7 87.35 185.05 89.8 182.3 90.45 179.6 91.05 174.6 91.05L170.8 91.05 170.8 69.05M249.65 90.65Q245.65 90.65 243.05 89.7 240.5 88.75 239.4 86.85 238.2 85 237.9 82.6 237.7 80.25 237.7 78.95L237.7 46.85 226.7 46.85 226.7 78.05Q226.7 81.1 227.05 84 227.4 86.85 228.4 89.35 229.4 91.9 231.55 94.05 233.65 96.25 236.4 97.5 239.2 98.75 241.6 99 243.85 99.35 247 99.35L262.8 99.35 262.8 90.65 249.65 90.65M276.55 61.95Q272.8 63 269.05 67.15 265.35 71.25 265.35 80.05 265.35 88.8 270.15 94.05 274.9 99.35 284.8 99.35L299.6 99.35 299.6 91.35 286.1 91.35Q282.75 91.35 280.8 90.95 278.8 90.35 277.75 88.8 276.7 87.2 276.7 84.2L299.6 84.2 299.6 76.1 276.7 76.1Q276.7 73.1 278 71.4 279.05 69.85 280.95 69.3 282.85 68.8 286.15 68.8L299.6 68.8 299.6 60.85 284.8 60.85Q280.35 60.85 276.55 61.95M364.85 68.2Q366.7 68.2 367.25 68.3 367.8 68.3 368.95 68.5 369.95 68.9 370.35 69.9 370.75 70.85 370.75 73.85L370.75 76.9 380.35 76.9 380.35 72Q380.35 68 379.7 65.75 379 63.45 376.7 62.15 374.35 60.85 369.7 60.85L352.6 60.85 352.6 99.35 362.7 99.35 362.7 68.2 364.85 68.2M334.5 61.55Q331.35 60.85 327.7 60.85L306.8 60.85 306.8 68.8 323.85 68.8Q326.95 68.8 328.95 69.25 330.85 69.8 332 71.3 333.15 72.9 333.15 76L319.75 76Q316.15 76 313.7 76.45 311.25 76.9 309.1 78.1 307 79.3 305.8 81.45 304.7 83.65 304.3 86.95L304.3 87.95Q304.3 93.35 307.5 96.25 310.6 99.35 316.25 99.35L343.55 99.35 343.55 75.2Q343.55 68.55 340.6 65.4 337.6 62.3 334.5 61.55M333.15 83.65L333.15 91.7 320.45 91.7Q318.7 91.7 317.65 91.4 316.55 91.15 315.8 90.2 315 89.35 315 87.65 315 85.15 316.8 84.4 318.6 83.65 321.15 83.65L333.15 83.65M478.2 62.05Q474.7 60.85 469.35 60.85L450.25 60.85 450.25 99.35 460.35 99.35 460.35 69.35 468.55 69.35Q471.45 69.35 472.8 70 474.25 70.55 474.6 71.75 474.95 73 475.05 74 475.2 75 475.2 76.25L475.2 99.35 485.5 99.35 485.5 74.95Q485.5 69.55 483.6 66.4 481.7 63.35 478.2 62.05M414.9 62.05Q411.4 60.85 406.05 60.85L387 60.85 387 99.35 397.05 99.35 397.05 69.35 405.25 69.35Q408.15 69.35 409.6 70 410.95 70.55 411.35 71.75 411.75 73 411.8 74 411.9 75.15 411.9 76.25L411.9 99.35 422.2 99.35 422.2 74.95Q422.2 69.55 420.3 66.4 418.4 63.35 414.9 62.05M441.35 60.85L430.8 60.85 430.8 99.35 441.35 99.35 441.35 60.85M441.35 46.85L430.8 46.85 430.8 56.35 441.35 56.35 441.35 46.85M506.1 61.2Q503.75 61.5 501.4 62.5 499.05 63.55 495.25 67.15 491.5 70.85 491.5 80.2 491.5 84.75 492.9 88.55 494.3 92.3 496.75 94.7 499.25 97 501.5 98 503.75 98.9 505.7 99.1 507.75 99.35 510.7 99.35L519.9 99.35Q519.9 105.3 513.75 105.3L495.65 105.3 495.65 113.15 515.6 113.15Q520.6 113.15 523.95 111.45 527.2 109.7 528.75 106.25 530.2 102.85 530.2 97.9L530.2 60.85 509.7 60.9Q508.45 60.95 506.1 61.2M514.55 69L519.9 69.05 519.9 91.35 513.4 91.35Q510.85 91.35 509.1 91.05 507.4 90.8 506.1 89.8 502.15 87 502.15 80.5L502.15 78.2Q502.15 76.3 502.7 74.85 503.25 73.35 504.5 71.85 505.75 70.35 508.4 69.7 511 69 514.55 69Z"/>
      </g>
    </g>
    <g mask="url(#mask_)">
      <g id="Tween-1" transform="matrix(1 0 0 1.377 -487.05 82.25)">
        <animateTransform attributeName="transform" additive="replace" type="translate" repeatCount="indefinite" dur="3s" keyTimes="0;.319;1" values="-487.05,82.2;1065.8,73.35;1065.8,73.35"/>
        <animateTransform attributeName="transform" additive="sum" type="scale" repeatCount="indefinite" dur="3s" keyTimes="0;1" values="1,1.377;1,1.377"/>
        <g id="Tween 1_0.0">
          <g>
            <g id="Layer3_0_FILL">
              <path fill="url(#Gradient_1)" stroke="none" d="M510.9 -32.05L-510.9 -32.05 -510.9 32.1 510.9 32.1 510.9 -32.05Z"/>
            </g>
          </g>
        </g>
      </g>
    </g>
    <mask id="mask_">
      <g>
        <g>
          <g id="Layer1_0_FILL">
            <path fill="#FFF" stroke="none" d="M65.7 49.45Q60.45 46.9 52.3 46.9L28.35 46.9 28.35 99.4 52.5 99.4Q57.85 99.4 61.7 98.45 65.5 97.55 71.25 92.8 76.95 88 76.95 74.15L76.95 71Q76.95 67.05 76.1 63.7 75.2 60.35 73.05 56.2 70.85 52.05 65.7 49.45M39.35 90.25L39.35 56 52.15 56Q53.7 56 55.2 56.1 56.75 56.25 58.3 56.7 59.95 57.05 61.85 59.25 63.8 61.5 64.4 65.1 65 68.8 65 73.15 65 77.7 64.4 81.3 63.8 84.95 61.6 87.4 59.75 89.3 57.65 89.8 55.5 90.25 52.15 90.25L39.35 90.25M154.15 68.85L154.15 60.9 139.3 60.9Q134.85 60.9 131.1 62 127.3 63.05 123.6 67.2 119.85 71.3 119.85 80.1 119.85 88.85 124.7 94.1 129.45 99.4 139.3 99.4L154.15 99.4 154.15 91.4 140.65 91.4Q137.2 91.4 135.3 91 133.3 90.4 132.25 88.85 131.2 87.25 131.2 84.25L154.15 84.25 154.15 76.15 131.2 76.15Q131.2 73.15 132.55 71.45 133.65 69.9 135.5 69.35 137.4 68.85 140.7 68.85L154.15 68.85M115.65 68.85L115.65 60.9 100.8 60.9Q96.4 60.9 92.6 62 88.8 63.05 85.1 67.2 81.4 71.3 81.4 80.1 81.4 88.85 86.15 94.1 90.9 99.4 100.8 99.4L115.65 99.4 115.65 91.4 102.1 91.4Q98.75 91.4 96.8 91 94.8 90.4 93.8 88.85 92.7 87.25 92.7 84.25L115.65 84.25 115.65 76.15 92.7 76.15Q92.7 73.15 94 71.45 95.1 69.9 97 69.35 98.85 68.85 102.2 68.85L115.65 68.85M193.8 65.75Q191.45 63.4 187.85 62.1 184.3 60.9 180.2 60.9L160.75 60.9 160.75 113.2 170.8 113.2 170.8 99.4 179.65 99.4Q182.9 99.4 185.65 98.9 188.3 98.4 190.7 97.1 193 95.9 194.9 93.55 199.05 87.95 199.05 80.55L199.05 79.15Q199.05 77.05 198.7 75.2 198.25 73.35 197.5 71.55 196.15 68.1 193.8 65.75M170.8 69.1L177.2 69.1Q182.75 69.1 185.55 71.15 188.35 73.15 188.35 79.15L188.35 79.9Q188.35 85.05 186.7 87.4 185.05 89.85 182.3 90.5 179.6 91.1 174.6 91.1L170.8 91.1 170.8 69.1M249.65 90.7Q245.65 90.7 243.05 89.75 240.5 88.8 239.4 86.9 238.2 85.05 237.9 82.65 237.7 80.3 237.7 79L237.7 46.9 226.7 46.9 226.7 78.1Q226.7 81.15 227.05 84.05 227.4 86.9 228.4 89.4 229.4 91.95 231.55 94.1 233.65 96.3 236.4 97.55 239.2 98.8 241.6 99.05 243.85 99.4 247 99.4L262.8 99.4 262.8 90.7 249.65 90.7M276.55 62Q272.8 63.05 269.05 67.2 265.35 71.3 265.35 80.1 265.35 88.85 270.15 94.1 274.9 99.4 284.8 99.4L299.6 99.4 299.6 91.4 286.1 91.4Q282.75 91.4 280.8 91 278.8 90.4 277.75 88.85 276.7 87.25 276.7 84.25L299.6 84.25 299.6 76.15 276.7 76.15Q276.7 73.15 278 71.45 279.05 69.9 280.95 69.35 282.85 68.85 286.15 68.85L299.6 68.85 299.6 60.9 284.8 60.9Q280.35 60.9 276.55 62M364.85 68.25Q366.7 68.25 367.25 68.35 367.8 68.35 368.95 68.55 369.95 68.95 370.35 69.95 370.75 70.9 370.75 73.9L370.75 76.95 380.35 76.95 380.35 72.05Q380.35 68.05 379.7 65.8 379 63.5 376.7 62.2 374.35 60.9 369.7 60.9L352.6 60.9 352.6 99.4 362.7 99.4 362.7 68.25 364.85 68.25M334.5 61.6Q331.35 60.9 327.7 60.9L306.8 60.9 306.8 68.85 323.85 68.85Q326.95 68.85 328.95 69.3 330.85 69.85 332 71.35 333.15 72.95 333.15 76.05L319.75 76.05Q316.15 76.05 313.7 76.5 311.25 76.95 309.1 78.15 307 79.35 305.8 81.5 304.7 83.7 304.3 87L304.3 88Q304.3 93.4 307.5 96.3 310.6 99.4 316.25 99.4L343.55 99.4 343.55 75.25Q343.55 68.6 340.6 65.45 337.6 62.35 334.5 61.6M333.15 83.7L333.15 91.75 320.45 91.75Q318.7 91.75 317.65 91.45 316.55 91.2 315.8 90.25 315 89.4 315 87.7 315 85.2 316.8 84.45 318.6 83.7 321.15 83.7L333.15 83.7M478.2 62.1Q474.7 60.9 469.35 60.9L450.25 60.9 450.25 99.4 460.35 99.4 460.35 69.4 468.55 69.4Q471.45 69.4 472.8 70.05 474.25 70.6 474.6 71.8 474.95 73.05 475.05 74.05 475.2 75.05 475.2 76.3L475.2 99.4 485.5 99.4 485.5 75Q485.5 69.6 483.6 66.45 481.7 63.4 478.2 62.1M414.9 62.1Q411.4 60.9 406.05 60.9L387 60.9 387 99.4 397.05 99.4 397.05 69.4 405.25 69.4Q408.15 69.4 409.6 70.05 410.95 70.6 411.35 71.8 411.75 73.05 411.8 74.05 411.9 75.2 411.9 76.3L411.9 99.4 422.2 99.4 422.2 75Q422.2 69.6 420.3 66.45 418.4 63.4 414.9 62.1M441.35 60.9L430.8 60.9 430.8 99.4 441.35 99.4 441.35 60.9M441.35 46.9L430.8 46.9 430.8 56.4 441.35 56.4 441.35 46.9M506.1 61.25Q503.75 61.55 501.4 62.55 499.05 63.6 495.25 67.2 491.5 70.9 491.5 80.25 491.5 84.8 492.9 88.6 494.3 92.35 496.75 94.75 499.25 97.05 501.5 98.05 503.75 98.95 505.7 99.15 507.75 99.4 510.7 99.4L519.9 99.4Q519.9 105.35 513.75 105.35L495.65 105.35 495.65 113.2 515.6 113.2Q520.6 113.2 523.95 111.5 527.2 109.75 528.75 106.3 530.2 102.9 530.2 97.95L530.2 60.9 509.7 60.95Q508.45 61 506.1 61.25M514.55 69.05L519.9 69.1 519.9 91.4 513.4 91.4Q510.85 91.4 509.1 91.1 507.4 90.85 506.1 89.85 502.15 87.05 502.15 80.55L502.15 78.25Q502.15 76.35 502.7 74.9 503.25 73.4 504.5 71.9 505.75 70.4 508.4 69.75 511 69.05 514.55 69.05Z" fill-opacity="1"/>
          </g>
        </g>
      </g>
    </mask>
  </g>
</svg>