<?xml version="1.0"?>
<svg xmlns="http://www.w3.org/2000/svg" height="512px" viewBox="0 -8 496 496" width="512px"><g><path d="m224 192h-112c-4.417969 0-8 3.582031-8 8s3.582031 8 8 8h112c4.417969 0 8-3.582031 8-8s-3.582031-8-8-8zm0 0" data-original="#000000" class="active-path" data-old_color="#000000" fill="#EB7D16"/><path d="m80 192c-4.417969 0-8 3.582031-8 8s3.582031 8 8 8h8c4.417969 0 8-3.582031 8-8s-3.582031-8-8-8zm0 0" data-original="#000000" class="active-path" data-old_color="#000000" fill="#EB7D16"/><path d="m48 208h8c4.417969 0 8-3.582031 8-8s-3.582031-8-8-8h-8c-4.417969 0-8 3.582031-8 8s3.582031 8 8 8zm0 0" data-original="#000000" class="active-path" data-old_color="#000000" fill="#EB7D16"/><path d="m224 216h-112c-4.417969 0-8 3.582031-8 8s3.582031 8 8 8h112c4.417969 0 8-3.582031 8-8s-3.582031-8-8-8zm0 0" data-original="#000000" class="active-path" data-old_color="#000000" fill="#EB7D16"/><path d="m48 232h40c4.417969 0 8-3.582031 8-8s-3.582031-8-8-8h-40c-4.417969 0-8 3.582031-8 8s3.582031 8 8 8zm0 0" data-original="#000000" class="active-path" data-old_color="#000000" fill="#EB7D16"/><path d="m48 256h40c4.417969 0 8-3.582031 8-8s-3.582031-8-8-8h-40c-4.417969 0-8 3.582031-8 8s3.582031 8 8 8zm0 0" data-original="#000000" class="active-path" data-old_color="#000000" fill="#EB7D16"/><path d="m112 240c-4.417969 0-8 3.582031-8 8s3.582031 8 8 8h16c4.417969 0 8-3.582031 8-8s-3.582031-8-8-8zm0 0" data-original="#000000" class="active-path" data-old_color="#000000" fill="#EB7D16"/><path d="m224 240h-72c-4.417969 0-8 3.582031-8 8s3.582031 8 8 8h72c4.417969 0 8-3.582031 8-8s-3.582031-8-8-8zm0 0" data-original="#000000" class="active-path" data-old_color="#000000" fill="#EB7D16"/><path d="m48 280h176c4.417969 0 8-3.582031 8-8s-3.582031-8-8-8h-176c-4.417969 0-8 3.582031-8 8s3.582031 8 8 8zm0 0" data-original="#000000" class="active-path" data-old_color="#000000" fill="#EB7D16"/><path d="m48 184h176c4.417969 0 8-3.582031 8-8v-112c0-4.417969-3.582031-8-8-8h-176c-4.417969 0-8 3.582031-8 8v112c0 4.417969 3.582031 8 8 8zm8-112h160v96h-160zm0 0" data-original="#000000" class="active-path" data-old_color="#000000" fill="#EB7D16"/><path d="m409.199219 223.121094c-2.492188 1.667968-3.84375 4.59375-3.496094 7.574218.347656 2.980469 2.335937 5.515626 5.144531 6.566407 2.8125 1.050781 5.976563.441406 8.191406-1.582031 22.328126-17.359376 35.847657-43.695313 36.941407-71.957032 1.097656-28.261718-10.34375-55.566406-31.261719-74.601562-3.289062-2.867188-8.246094-2.65625-11.277344.480468-2.96875 3.25-2.753906 8.285157.480469 11.269532 10.8125 9.878906 18.722656 22.523437 22.878906 36.570312 2.109375 7.332032 3.183594 14.925782 3.199219 22.558594 0 24.660156-11.363281 47.945312-30.800781 63.121094zm0 0" data-original="#000000" class="active-path" data-old_color="#000000" fill="#EB7D16"/><path d="m278.71875 125.359375c1.152344.636719 2.445312.964844 3.761719.960937 2.90625-.003906 5.578125-1.601562 6.960937-4.160156.078125 0 .078125 0 .078125-.082031 6.953125-12.882813 17.300781-23.617187 29.921875-31.039063 8.347656-4.953124 17.542969-8.316406 27.117188-9.917968 4.164062-.917969 6.878906-4.933594 6.171875-9.136719-.703125-4.203125-4.578125-7.117187-8.808594-6.625-11.53125 1.894531-22.605469 5.9375-32.640625 11.921875-15.144531 8.894531-27.542969 21.789062-35.839844 37.269531-1.011718 1.867188-1.242187 4.054688-.640625 6.089844.640625 2.023437 2.046875 3.714844 3.917969 4.71875zm0 0" data-original="#000000" class="active-path" data-old_color="#000000" fill="#EB7D16"/><path d="m340.480469 237.601562c-23.925781-6.042968-43.730469-22.777343-53.679688-45.363281-1.882812-3.945312-6.515625-5.734375-10.5625-4.078125-1.953125.867188-3.480469 2.480469-4.238281 4.480469-.789062 1.960937-.730469 4.160156.160156 6.078125 11.941406 27.085938 35.699219 47.15625 64.398438 54.402344 4.285156 1.054687 8.617187-1.558594 9.679687-5.839844.558594-2.066406.242188-4.269531-.878906-6.089844-1.109375-1.773437-2.855469-3.058594-4.878906-3.589844zm0 0" data-original="#000000" class="active-path" data-old_color="#000000" fill="#EB7D16"/><path d="m336 104c-13.253906 0-24 10.746094-24 24v72c0 8.835938 7.164062 16 16 16h56c13.253906 0 24-10.746094 24-24s-10.746094-24-24-24h-24v-40c0-13.253906-10.746094-24-24-24zm48 80c4.417969 0 8 3.582031 8 8s-3.582031 8-8 8h-56v-72c0-4.417969 3.582031-8 8-8s8 3.582031 8 8v40c0 8.835938 7.164062 16 16 16zm0 0" data-original="#000000" class="active-path" data-old_color="#000000" fill="#EB7D16"/><path d="m400 80c0 4.417969-3.582031 8-8 8s-8-3.582031-8-8 3.582031-8 8-8 8 3.582031 8 8zm0 0" data-original="#000000" class="active-path" data-old_color="#000000" fill="#EB7D16"/><path d="m280 152c0 4.417969-3.582031 8-8 8s-8-3.582031-8-8 3.582031-8 8-8 8 3.582031 8 8zm0 0" data-original="#000000" class="active-path" data-old_color="#000000" fill="#EB7D16"/><path d="m376 248c0 4.417969-3.582031 8-8 8s-8-3.582031-8-8 3.582031-8 8-8 8 3.582031 8 8zm0 0" data-original="#000000" class="active-path" data-old_color="#000000" fill="#EB7D16"/><path d="m472 0h-448c-13.253906 0-24 10.746094-24 24v344c0 13.253906 10.746094 24 24 24h166.9375l-6 48h-8.9375c-3.445312 0-6.503906 2.203125-7.59375 5.472656l-8 24c-.8125 2.4375-.402344 5.121094 1.101562 7.207032 1.503907 2.085937 3.921876 3.320312 6.492188 3.320312h160c2.570312 0 4.988281-1.234375 6.492188-3.320312 1.503906-2.085938 1.914062-4.769532 1.101562-7.207032l-8-24c-1.089844-3.269531-4.148438-5.472656-7.59375-5.472656h-8.9375l-6-48h166.9375c13.253906 0 24-10.746094 24-24v-344c0-13.253906-10.746094-24-24-24zm-448 16h448c4.417969 0 8 3.582031 8 8v304h-464v-304c0-4.417969 3.582031-8 8-8zm292.902344 448h-137.804688l2.671875-8h132.460938zm-21.964844-24h-93.875l6-48h81.875zm177.0625-64h-448c-4.417969 0-8-3.582031-8-8v-24h464v24c0 4.417969-3.582031 8-8 8zm0 0" data-original="#000000" class="active-path" data-old_color="#000000" fill="#EB7D16"/><path d="m256 352h-16c-4.417969 0-8 3.582031-8 8s3.582031 8 8 8h16c4.417969 0 8-3.582031 8-8s-3.582031-8-8-8zm0 0" data-original="#000000" class="active-path" data-old_color="#000000" fill="#EB7D16"/></g> </svg>
