<?xml version="1.0"?>
<svg xmlns="http://www.w3.org/2000/svg" height="512px" viewBox="0 0 64 64" width="512px"><g><g id="biomatic_sensor" data-name="biomatic sensor"><path d="m50 42a4 4 0 0 0 -6.239-3.312 3.979 3.979 0 0 0 -6-2 3.947 3.947 0 0 0 -5.761-2.132v-14.556a4 4 0 0 0 -8 0v13.084l-7.878 14.437a1 1 0 0 0 0 .953l6.993 13a1 1 0 0 0 .881.526h17.011a1 1 0 0 0 .809-.412l7.993-11a1 1 0 0 0 .191-.588zm-2 7.675-7.5 10.325h-15.909l-6.454-12 5.863-10.739v7.739h2v-25a2 2 0 0 1 4 0v25h2v-7a2 2 0 0 1 4 0v8h2v-6a2 2 0 0 1 4 0v8h2v-6a2 2 0 0 1 4 0z" data-original="#000000" class="active-path" data-old_color="#000000" fill="#FF7E00"/><path d="m54 56h8v2h-8z" data-original="#000000" class="active-path" data-old_color="#000000" fill="#FF7E00"/><path d="m60 60h2v2h-2z" data-original="#000000" class="active-path" data-old_color="#000000" fill="#FF7E00"/><path d="m50 56h2v2h-2z" data-original="#000000" class="active-path" data-old_color="#000000" fill="#FF7E00"/><path d="m50 60h8v2h-8z" data-original="#000000" class="active-path" data-old_color="#000000" fill="#FF7E00"/><path d="m6 56h8v2h-8z" data-original="#000000" class="active-path" data-old_color="#000000" fill="#FF7E00"/><path d="m12 60h2v2h-2z" data-original="#000000" class="active-path" data-old_color="#000000" fill="#FF7E00"/><path d="m2 56h2v2h-2z" data-original="#000000" class="active-path" data-old_color="#000000" fill="#FF7E00"/><path d="m6 48h8v2h-8z" data-original="#000000" class="active-path" data-old_color="#000000" fill="#FF7E00"/><path d="m2 48h2v2h-2z" data-original="#000000" class="active-path" data-old_color="#000000" fill="#FF7E00"/><path d="m2 60h8v2h-8z" data-original="#000000" class="active-path" data-old_color="#000000" fill="#FF7E00"/><path d="m2 52h6v2h-6z" data-original="#000000" class="active-path" data-old_color="#000000" fill="#FF7E00"/><path d="m10 52h4v2h-4z" data-original="#000000" class="active-path" data-old_color="#000000" fill="#FF7E00"/><path d="m17 35h2v2h-2z" data-original="#000000" class="active-path" data-old_color="#000000" fill="#FF7E00"/><path d="m6 36v10h2v-9h7v-2h-8a1 1 0 0 0 -1 1z" data-original="#000000" class="active-path" data-old_color="#000000" fill="#FF7E00"/><path d="m50 20a3 3 0 0 0 3-3v-4a3 3 0 0 0 -6 0v4a3 3 0 0 0 3 3zm-1-7a1 1 0 0 1 2 0v4a1 1 0 0 1 -2 0z" data-original="#000000" class="active-path" data-old_color="#000000" fill="#FF7E00"/><path d="m50 24a7.008 7.008 0 0 0 7-7v-4a7 7 0 0 0 -14 0v4a7.008 7.008 0 0 0 7 7zm-5-11a5 5 0 0 1 10 0v4a5 5 0 0 1 -10 0z" data-original="#000000" class="active-path" data-old_color="#000000" fill="#FF7E00"/><path d="m50 28a11.013 11.013 0 0 0 11-11v-4a11 11 0 0 0 -22 0v4a11.013 11.013 0 0 0 11 11zm-9-15a9 9 0 0 1 18 0v4a9 9 0 0 1 -18 0z" data-original="#000000" class="active-path" data-old_color="#000000" fill="#FF7E00"/><path d="m29 11h9v-2h-10a1 1 0 0 0 -1 1v4h2z" data-original="#000000" class="active-path" data-old_color="#000000" fill="#FF7E00"/><path d="m51 33.465v-3.465h-2v4a1 1 0 0 0 .445.832l3 2a1.006 1.006 0 0 0 .555.168h9v-2h-8.7z" data-original="#000000" class="active-path" data-old_color="#000000" fill="#FF7E00"/><path d="m3 32h18a1 1 0 0 0 1-1v-28a1 1 0 0 0 -1-1h-18a1 1 0 0 0 -1 1v28a1 1 0 0 0 1 1zm1-28h16v26h-16z" data-original="#000000" class="active-path" data-old_color="#000000" fill="#FF7E00"/><path d="m6 6h6v2h-6z" data-original="#000000" class="active-path" data-old_color="#000000" fill="#FF7E00"/><path d="m14 6h4v2h-4z" data-original="#000000" class="active-path" data-old_color="#000000" fill="#FF7E00"/><path d="m6 10h2v2h-2z" data-original="#000000" class="active-path" data-old_color="#000000" fill="#FF7E00"/><path d="m10 10h8v2h-8z" data-original="#000000" class="active-path" data-old_color="#000000" fill="#FF7E00"/><path d="m6 14h8v2h-8z" data-original="#000000" class="active-path" data-old_color="#000000" fill="#FF7E00"/><path d="m16 14h2v2h-2z" data-original="#000000" class="active-path" data-old_color="#000000" fill="#FF7E00"/><path d="m6 18h6v2h-6z" data-original="#000000" class="active-path" data-old_color="#000000" fill="#FF7E00"/><path d="m14 18h4v2h-4z" data-original="#000000" class="active-path" data-old_color="#000000" fill="#FF7E00"/><path d="m6 22h4v2h-4z" data-original="#000000" class="active-path" data-old_color="#000000" fill="#FF7E00"/><path d="m12 22h6v2h-6z" data-original="#000000" class="active-path" data-old_color="#000000" fill="#FF7E00"/><path d="m6 26h8v2h-8z" data-original="#000000" class="active-path" data-old_color="#000000" fill="#FF7E00"/><path d="m16 26h2v2h-2z" data-original="#000000" class="active-path" data-old_color="#000000" fill="#FF7E00"/><path d="m60 31h2v2h-2z" data-original="#000000" class="active-path" data-old_color="#000000" fill="#FF7E00"/><path d="m54 31h4v2h-4z" data-original="#000000" class="active-path" data-old_color="#000000" fill="#FF7E00"/><path d="m60 39h2v2h-2z" data-original="#000000" class="active-path" data-old_color="#000000" fill="#FF7E00"/><path d="m54 39h4v2h-4z" data-original="#000000" class="active-path" data-old_color="#000000" fill="#FF7E00"/></g></g> </svg>
