<?xml version="1.0" encoding="utf-8"?>
<!-- Generator: Adobe Illustrator 16.0.0, SVG Export Plug-In . SVG Version: 6.00 Build 0)  -->
<!DOCTYPE svg PUBLIC "-//W3C//DTD SVG 1.1//EN" "http://www.w3.org/Graphics/SVG/1.1/DTD/svg11.dtd">
<svg version="1.1" id="Layer_1" xmlns="http://www.w3.org/2000/svg" xmlns:xlink="http://www.w3.org/1999/xlink" x="0px" y="0px"
	 width="317.5px" height="93px" viewBox="0 0 317.5 93" enable-background="new 0 0 317.5 93" xml:space="preserve">
<g>
	<path fill="#EB7E24" d="M149.179,61.938h-10.847c-0.427,0-0.774,0.324-0.774,0.722c0,0.398,0.347,0.722,0.774,0.722h10.847
		c0.428,0,0.774-0.323,0.774-0.722C149.953,62.262,149.606,61.938,149.179,61.938z"/>
	<path fill="#EB7E24" d="M135.233,61.938c-0.428,0-0.775,0.324-0.775,0.722c0,0.398,0.347,0.722,0.775,0.722h0.774
		c0.428,0,0.775-0.323,0.775-0.722c0-0.398-0.347-0.722-0.775-0.722H135.233z"/>
	<path fill="#EB7E24" d="M132.134,63.382h0.774c0.428,0,0.775-0.323,0.775-0.722c0-0.398-0.347-0.722-0.775-0.722h-0.774
		c-0.427,0-0.775,0.324-0.775,0.722C131.359,63.059,131.707,63.382,132.134,63.382z"/>
	<path fill="#EB7E24" d="M149.179,64.104h-10.847c-0.427,0-0.774,0.323-0.774,0.722c0,0.399,0.347,0.722,0.774,0.722h10.847
		c0.428,0,0.774-0.323,0.774-0.722C149.953,64.427,149.606,64.104,149.179,64.104z"/>
	<path fill="#EB7E24" d="M132.134,65.547h3.874c0.428,0,0.775-0.323,0.775-0.722c0-0.398-0.347-0.722-0.775-0.722h-3.874
		c-0.427,0-0.775,0.323-0.775,0.722C131.359,65.224,131.707,65.547,132.134,65.547z"/>
	<path fill="#EB7E24" d="M132.134,67.711h3.874c0.428,0,0.775-0.323,0.775-0.721s-0.347-0.722-0.775-0.722h-3.874
		c-0.427,0-0.775,0.323-0.775,0.722S131.707,67.711,132.134,67.711z"/>
	<path fill="#EB7E24" d="M138.332,66.269c-0.427,0-0.774,0.323-0.774,0.722s0.347,0.721,0.774,0.721h1.55
		c0.427,0,0.774-0.323,0.774-0.721s-0.347-0.722-0.774-0.722H138.332z"/>
	<path fill="#EB7E24" d="M149.179,66.269h-6.973c-0.427,0-0.774,0.323-0.774,0.722s0.347,0.721,0.774,0.721h6.973
		c0.428,0,0.774-0.323,0.774-0.721S149.606,66.269,149.179,66.269z"/>
	<path fill="#EB7E24" d="M132.134,69.876h17.044c0.428,0,0.774-0.323,0.774-0.722s-0.347-0.721-0.774-0.721h-17.044
		c-0.427,0-0.775,0.323-0.775,0.721S131.707,69.876,132.134,69.876z"/>
	<path fill="#EB7E24" d="M132.134,61.217h17.044c0.428,0,0.774-0.323,0.774-0.721V50.394c0-0.398-0.347-0.722-0.774-0.722h-17.044
		c-0.427,0-0.775,0.323-0.775,0.722v10.103C131.359,60.895,131.707,61.217,132.134,61.217z M132.909,51.115h15.495v8.659h-15.495
		V51.115z"/>
	<path fill="#EB7E24" d="M167.113,64.746c-0.241,0.15-0.372,0.414-0.338,0.683c0.034,0.269,0.227,0.497,0.499,0.592
		c0.272,0.095,0.578,0.04,0.793-0.142c2.162-1.566,3.471-3.942,3.577-6.491c0.106-2.549-1.002-5.012-3.028-6.729
		c-0.318-0.259-0.798-0.239-1.092,0.043c-0.288,0.294-0.267,0.748,0.047,1.018c1.047,0.891,1.813,2.031,2.215,3.298
		c0.205,0.661,0.309,1.346,0.311,2.035C170.097,61.277,168.996,63.377,167.113,64.746z"/>
	<path fill="#EB7E24" d="M154.478,55.928c0.112,0.057,0.236,0.087,0.364,0.086c0.282,0,0.54-0.144,0.674-0.375
		c0.008,0,0.008,0,0.008-0.008c0.672-1.162,1.675-2.13,2.897-2.799c0.809-0.447,1.699-0.75,2.626-0.895
		c0.403-0.083,0.666-0.445,0.598-0.824c-0.068-0.379-0.444-0.642-0.853-0.598c-1.117,0.171-2.19,0.536-3.162,1.076
		c-1.465,0.802-2.667,1.966-3.47,3.361c-0.098,0.169-0.12,0.366-0.062,0.549C154.16,55.685,154.296,55.837,154.478,55.928z"/>
	<path fill="#EB7E24" d="M160.459,66.052c-2.317-0.545-4.235-2.054-5.199-4.091c-0.183-0.356-0.631-0.518-1.022-0.368
		c-0.189,0.079-0.338,0.224-0.411,0.404c-0.076,0.177-0.07,0.375,0.015,0.548c1.157,2.442,3.458,4.253,6.237,4.907
		c0.415,0.095,0.834-0.141,0.937-0.527c0.054-0.186,0.023-0.385-0.085-0.549C160.823,66.216,160.655,66.101,160.459,66.052z"/>
	<path fill="#EB7E24" d="M160.025,54.001c-1.284,0-2.325,0.969-2.325,2.165v6.494c0,0.797,0.694,1.443,1.55,1.443h5.422
		c1.284,0,2.325-0.969,2.325-2.165c0-1.195-1.041-2.165-2.325-2.165h-2.324v-3.607C162.349,54.971,161.309,54.001,160.025,54.001z
		 M164.673,61.217c0.428,0,0.775,0.323,0.775,0.721c0,0.399-0.347,0.722-0.775,0.722h-5.422v-6.494c0-0.399,0.346-0.722,0.774-0.722
		s0.775,0.323,0.775,0.722v3.607c0,0.797,0.693,1.443,1.549,1.443H164.673z"/>
	<path fill="#EB7E24" d="M166.223,51.837c0,0.398-0.347,0.721-0.775,0.721c-0.427,0-0.775-0.323-0.775-0.721
		c0-0.398,0.348-0.722,0.775-0.722C165.875,51.115,166.223,51.438,166.223,51.837z"/>
	<path fill="#EB7E24" d="M154.602,58.331c0,0.398-0.347,0.722-0.774,0.722c-0.428,0-0.775-0.323-0.775-0.722
		s0.347-0.722,0.775-0.722C154.255,57.609,154.602,57.933,154.602,58.331z"/>
	<path fill="#EB7E24" d="M163.898,66.99c0,0.398-0.347,0.721-0.775,0.721c-0.427,0-0.774-0.323-0.774-0.721s0.348-0.722,0.774-0.722
		C163.552,66.269,163.898,66.592,163.898,66.99z"/>
	<path fill="#EB7E24" d="M173.195,44.621h-43.385c-1.284,0-2.325,0.97-2.325,2.165v31.028c0,1.196,1.041,2.165,2.325,2.165h16.166
		l-0.581,4.33h-0.866c-0.333,0-0.629,0.198-0.735,0.493l-0.775,2.165c-0.078,0.22-0.039,0.462,0.107,0.65
		c0.146,0.188,0.38,0.299,0.628,0.299h15.495c0.249,0,0.483-0.111,0.629-0.299c0.145-0.188,0.185-0.431,0.106-0.65l-0.775-2.165
		c-0.105-0.295-0.401-0.493-0.735-0.493h-0.865l-0.582-4.33h16.167c1.284,0,2.324-0.969,2.324-2.165V46.785
		C175.519,45.59,174.479,44.621,173.195,44.621z M129.811,46.064h43.385c0.428,0,0.774,0.323,0.774,0.721v27.421h-44.934V46.785
		C129.036,46.387,129.382,46.064,129.811,46.064z M158.175,86.473H144.83l0.259-0.721h12.828L158.175,86.473z M156.048,84.309
		h-9.091l0.581-4.33h7.929L156.048,84.309z M173.195,78.535h-43.385c-0.428,0-0.775-0.322-0.775-0.722v-2.165h44.934v2.165
		C173.97,78.213,173.623,78.535,173.195,78.535z"/>
	<path fill="#EB7E24" d="M152.278,76.371h-1.55c-0.428,0-0.775,0.323-0.775,0.722c0,0.397,0.347,0.721,0.775,0.721h1.55
		c0.428,0,0.774-0.323,0.774-0.721C153.052,76.693,152.706,76.371,152.278,76.371z"/>
</g>
<g>
	<path fill="#F57E20" d="M47.923,56.809c0.199,0,0.39-0.074,0.53-0.205l8.787-8.183h1.328c0.311,0.811,1.137,1.398,2.114,1.398
		c1.242,0,2.251-0.941,2.251-2.097c0-1.156-1.01-2.097-2.251-2.097c-0.977,0-1.803,0.586-2.114,1.398h-1.639
		c-0.199,0-0.39,0.074-0.53,0.205l-8.787,8.184h-1.19v-0.699c0-1.156-1.011-2.097-2.252-2.097s-2.251,0.941-2.251,2.097v2.097H38.09
		c-0.35-1.593-1.864-2.796-3.677-2.796c-0.94,0-1.789,0.334-2.448,0.868l-6.947-4.941c0.242-0.461,0.389-0.973,0.389-1.519
		c0-1.928-1.684-3.496-3.753-3.496s-3.753,1.568-3.753,3.496c0,1.927,1.684,3.495,3.753,3.495c0.939,0,1.789-0.335,2.449-0.868
		l6.946,4.94c-0.136,0.26-0.25,0.531-0.313,0.821h-5.405c-0.349-1.593-1.865-2.795-3.677-2.795c-2.069,0-3.753,1.568-3.753,3.495
		c0,1.927,1.684,3.496,3.753,3.496c0.939,0,1.789-0.335,2.449-0.869l2.694,1.917l-2.694,1.917c-0.66-0.533-1.509-0.868-2.449-0.868
		c-2.069,0-3.753,1.567-3.753,3.495c0,1.927,1.684,3.495,3.753,3.495c0.939,0,1.789-0.335,2.449-0.868l2.694,1.917l-2.694,1.917
		c-0.66-0.533-1.509-0.868-2.449-0.868c-2.069,0-3.753,1.568-3.753,3.495c0,1.929,1.684,3.495,3.753,3.495
		c1.812,0,3.328-1.203,3.677-2.795h5.405c0.063,0.29,0.177,0.561,0.313,0.82l-6.946,4.939c-0.66-0.531-1.509-0.867-2.449-0.867
		c-2.069,0-3.753,1.569-3.753,3.496c0,1.928,1.684,3.495,3.753,3.495s3.753-1.567,3.753-3.495c0-0.547-0.147-1.057-0.389-1.52
		l6.947-4.94c0.659,0.533,1.508,0.867,2.448,0.867c1.812,0,3.328-1.203,3.677-2.795h3.828v1.398c0,1.156,1.01,2.098,2.251,2.098
		s2.252-0.941,2.252-2.098h1.19l8.787,8.184c0.141,0.131,0.332,0.205,0.53,0.205h1.639c0.311,0.812,1.137,1.398,2.114,1.398
		c1.242,0,2.251-0.941,2.251-2.099c0-1.156-1.01-2.097-2.251-2.097c-0.977,0-1.803,0.587-2.114,1.398H57.24l-8.787-8.184
		c-0.14-0.132-0.332-0.205-0.53-0.205h-1.502v-2.098h3.443l5.784,5.388c0.14,0.131,0.332,0.205,0.53,0.205h2.39
		c0.311,0.812,1.137,1.396,2.114,1.396c1.242,0,2.251-0.939,2.251-2.097c0-1.156-1.01-2.097-2.251-2.097
		c-0.977,0-1.803,0.586-2.114,1.398h-2.079l-5.785-5.388c-0.14-0.131-0.332-0.205-0.53-0.205h-3.753V70.79h6.445l2.782,2.591
		c0.14,0.132,0.332,0.205,0.53,0.205h2.39c0.311,0.812,1.137,1.398,2.114,1.398c1.242,0,2.251-0.94,2.251-2.097
		c0-1.156-1.01-2.097-2.251-2.097c-0.977,0-1.803,0.586-2.114,1.397h-2.079l-2.782-2.591c-0.141-0.131-0.332-0.204-0.531-0.204
		h-6.755v-2.097h12.147c0.311,0.812,1.137,1.398,2.114,1.398c1.242,0,2.251-0.94,2.251-2.097c0-1.156-1.01-2.098-2.251-2.098
		c-0.977,0-1.803,0.587-2.114,1.398H46.422V63.8h6.754c0.199,0,0.39-0.074,0.531-0.205l2.782-2.591h2.079
		c0.311,0.812,1.137,1.398,2.114,1.398c1.242,0,2.251-0.941,2.251-2.097s-1.01-2.097-2.251-2.097c-0.977,0-1.803,0.587-2.114,1.398
		h-2.39c-0.199,0-0.39,0.073-0.53,0.204l-2.782,2.592h-6.444v-2.097h3.752c0.199,0,0.39-0.074,0.53-0.205l5.785-5.388h2.079
		c0.311,0.812,1.137,1.398,2.114,1.398c1.242,0,2.251-0.941,2.251-2.097c0-1.156-1.01-2.098-2.251-2.098
		c-0.977,0-1.803,0.586-2.114,1.398h-2.39c-0.199,0-0.39,0.073-0.53,0.205l-5.784,5.388h-3.442v-2.097H47.923z M60.682,47.022
		c0.413,0,0.751,0.313,0.751,0.699c0,0.385-0.338,0.699-0.751,0.699c-0.414,0-0.75-0.314-0.75-0.699
		C59.931,47.335,60.268,47.022,60.682,47.022z M60.682,84.771c0.413,0,0.751,0.313,0.751,0.698c0,0.387-0.338,0.7-0.751,0.7
		c-0.414,0-0.75-0.313-0.75-0.7C59.931,85.084,60.268,84.771,60.682,84.771z M60.682,78.479c0.413,0,0.751,0.313,0.751,0.698
		c0,0.387-0.338,0.7-0.751,0.7c-0.414,0-0.75-0.313-0.75-0.7C59.931,78.793,60.268,78.479,60.682,78.479z M60.682,72.188
		c0.413,0,0.751,0.313,0.751,0.699c0,0.387-0.338,0.699-0.751,0.699c-0.414,0-0.75-0.313-0.75-0.699
		C59.931,72.501,60.268,72.188,60.682,72.188z M60.682,65.896c0.413,0,0.751,0.313,0.751,0.699s-0.338,0.699-0.751,0.699
		c-0.414,0-0.75-0.313-0.75-0.699S60.268,65.896,60.682,65.896z M60.682,59.605c0.413,0,0.751,0.313,0.751,0.699
		s-0.338,0.699-0.751,0.699c-0.414,0-0.75-0.313-0.75-0.699S60.268,59.605,60.682,59.605z M60.682,53.314
		c0.413,0,0.751,0.313,0.751,0.699c0,0.385-0.338,0.699-0.751,0.699c-0.414,0-0.75-0.313-0.75-0.699
		C59.931,53.627,60.268,53.314,60.682,53.314z M38.09,58.207h3.828v7.689H38.09c-0.35-1.593-1.864-2.796-3.677-2.796
		c-0.94,0-1.789,0.334-2.448,0.868l-2.694-1.917l2.694-1.917c0.659,0.534,1.508,0.869,2.448,0.869
		C36.225,61.003,37.741,59.8,38.09,58.207z M32.162,66.596c0-1.156,1.01-2.098,2.251-2.098s2.252,0.941,2.252,2.098
		c0,1.157-1.011,2.097-2.252,2.097S32.162,67.752,32.162,66.596z M34.413,55.411c1.241,0,2.252,0.941,2.252,2.097
		c0,1.157-1.011,2.098-2.252,2.098s-2.251-0.941-2.251-2.098C32.162,56.352,33.172,55.411,34.413,55.411z M21.654,50.518
		c-1.242,0-2.252-0.941-2.252-2.097c0-1.157,1.01-2.098,2.252-2.098c1.241,0,2.252,0.941,2.252,2.098
		C23.906,49.577,22.896,50.518,21.654,50.518z M21.654,59.605c-1.242,0-2.252-0.941-2.252-2.098c0-1.156,1.01-2.097,2.252-2.097
		c1.241,0,2.252,0.941,2.252,2.097C23.906,58.665,22.896,59.605,21.654,59.605z M25.018,59.027c0.136-0.26,0.25-0.53,0.313-0.82
		h5.405c0.063,0.29,0.177,0.561,0.313,0.82l-3.016,2.145L25.018,59.027z M31.049,65.077c-0.136,0.259-0.25,0.529-0.313,0.82h-5.405
		c-0.063-0.291-0.177-0.561-0.313-0.82l3.016-2.145L31.049,65.077z M21.654,68.693c-1.242,0-2.252-0.94-2.252-2.097
		c0-1.156,1.01-2.098,2.252-2.098c1.241,0,2.252,0.941,2.252,2.098C23.906,67.752,22.896,68.693,21.654,68.693z M25.018,68.114
		c0.136-0.259,0.25-0.53,0.313-0.819h5.405c0.063,0.29,0.177,0.561,0.313,0.819l-3.016,2.145L25.018,68.114z M30.736,74.984h-5.405
		c-0.063-0.29-0.177-0.56-0.313-0.82l3.016-2.145l3.016,2.145C30.914,74.424,30.8,74.694,30.736,74.984z M21.654,77.78
		c-1.242,0-2.252-0.94-2.252-2.098c0-1.156,1.01-2.097,2.252-2.097c1.241,0,2.252,0.94,2.252,2.097
		C23.906,76.84,22.896,77.78,21.654,77.78z M21.654,86.868c-1.242,0-2.252-0.942-2.252-2.098c0-1.156,1.01-2.098,2.252-2.098
		c1.241,0,2.252,0.941,2.252,2.098C23.906,85.926,22.896,86.868,21.654,86.868z M34.413,77.78c-1.241,0-2.251-0.94-2.251-2.098
		c0-1.156,1.01-2.097,2.251-2.097s2.252,0.94,2.252,2.097C36.665,76.84,35.654,77.78,34.413,77.78z M38.09,74.984
		c-0.35-1.593-1.864-2.796-3.677-2.796c-0.94,0-1.789,0.335-2.448,0.868l-2.694-1.917l2.694-1.917
		c0.659,0.533,1.508,0.868,2.448,0.868c1.812,0,3.328-1.203,3.677-2.796h3.828v7.689H38.09z M44.92,77.78
		c0,0.386-0.336,0.699-0.75,0.699c-0.413,0-0.75-0.313-0.75-0.699V54.712c0-0.386,0.337-0.699,0.75-0.699
		c0.414,0,0.75,0.313,0.75,0.699V77.78z"/>
	<path fill="#F57E20" d="M38.917,60.304h1.501v1.398h-1.501V60.304z"/>
	<path fill="#F57E20" d="M38.917,63.101h1.501v1.397h-1.501V63.101z"/>
	<path fill="#F57E20" d="M38.917,68.693h1.501v1.398h-1.501V68.693z"/>
	<path fill="#F57E20" d="M38.917,71.489h1.501v1.397h-1.501V71.489z"/>
</g>
<g>
	<g>
		<g>
			<g>
				<path fill="#EB7E24" d="M217.396,62.253l-2.899-4.37c-0.137-0.206-0.412-0.36-0.755-0.423l-3.536-0.633
					c0.004-0.038,0.008-0.073,0.008-0.11c0-0.068-0.01-0.131-0.028-0.194l2.586-1.299c0.231-0.117,0.414-0.269,0.527-0.442
					l2.894-4.358c0.119-0.181-0.017-0.388-0.305-0.463c-0.287-0.075-0.616,0.01-0.735,0.19l-2.892,4.359
					c-0.042,0.062-0.107,0.117-0.192,0.159l-2.436,1.225c-0.178-0.1-0.39-0.18-0.623-0.23v-0.774
					c0.289-0.104,0.551-0.237,0.779-0.395c0.672-0.466,1.027-1.137,1.027-1.938c0-0.387-0.082-0.743-0.245-1.061l1.607-1.137
					c0.286-0.204,0.445-0.465,0.445-0.736v-4.346c0-0.12,0.03-0.238,0.087-0.353l0.486-0.957c0.096-0.186-0.068-0.385-0.363-0.443
					c-0.297-0.06-0.613,0.042-0.709,0.228l-0.487,0.958c-0.094,0.184-0.141,0.375-0.141,0.568v4.346
					c0,0.098-0.057,0.193-0.161,0.267l-1.3,0.92c-0.077-0.068-0.158-0.132-0.247-0.192c-0.039-0.028-0.079-0.054-0.121-0.081
					c0.494-1.195-0.771-1.983-0.829-2.017c-0.224-0.136-0.581-0.132-0.798,0.008c-0.216,0.14-0.212,0.363,0.012,0.499
					c0.033,0.021,0.677,0.434,0.593,1.081c-0.429-0.115-0.903-0.174-1.403-0.174s-0.974,0.059-1.403,0.174
					c-0.084-0.644,0.557-1.056,0.593-1.081c0.221-0.136,0.227-0.359,0.012-0.499c-0.216-0.14-0.574-0.144-0.797-0.008
					c-0.057,0.034-1.324,0.822-0.829,2.017c-0.042,0.026-0.082,0.052-0.122,0.081c-0.086,0.06-0.169,0.124-0.245,0.192l-1.301-0.92
					c-0.104-0.074-0.161-0.169-0.161-0.267v-4.346c0-0.192-0.048-0.384-0.141-0.568l-0.488-0.958
					c-0.094-0.187-0.412-0.288-0.708-0.228c-0.297,0.059-0.46,0.257-0.365,0.443l0.488,0.957c0.057,0.115,0.088,0.233,0.088,0.353
					v4.346c0,0.271,0.158,0.533,0.445,0.736l1.606,1.137c-0.161,0.318-0.245,0.674-0.245,1.061c0,0.801,0.354,1.473,1.027,1.938
					c0.228,0.158,0.489,0.29,0.779,0.395v0.774c-0.233,0.05-0.445,0.13-0.624,0.23l-2.437-1.225
					c-0.083-0.042-0.149-0.097-0.19-0.159l-2.893-4.359c-0.12-0.181-0.451-0.266-0.736-0.191c-0.287,0.076-0.423,0.283-0.304,0.463
					l2.893,4.358c0.113,0.173,0.295,0.325,0.527,0.442l2.586,1.299c-0.017,0.063-0.027,0.128-0.027,0.194
					c0,0.038,0.002,0.074,0.008,0.11l-3.536,0.634c-0.343,0.062-0.618,0.216-0.756,0.422l-2.899,4.37
					c-0.12,0.182,0.017,0.387,0.303,0.464c0.071,0.018,0.143,0.025,0.217,0.025c0.221,0,0.43-0.082,0.52-0.217l2.9-4.37
					c0.004-0.007,0.013-0.011,0.025-0.013l3.479-0.624c-0.385,0.361-0.731,0.794-1.022,1.274l-2.237,1.212
					c-0.39,0.21-0.612,0.517-0.612,0.841v4.679c0,0.121-0.046,0.241-0.132,0.349l-1.015,1.273c-0.139,0.175-0.026,0.388,0.252,0.474
					c0.081,0.025,0.168,0.038,0.251,0.038c0.207,0,0.405-0.072,0.504-0.194l1.014-1.273c0.164-0.207,0.25-0.437,0.25-0.666v-4.679
					c0-0.117,0.082-0.229,0.223-0.306l0.89-0.483c-0.277,0.753-0.433,1.552-0.433,2.333c0,1.177,0.47,2.289,1.322,3.131
					c0.903,0.892,2.13,1.383,3.456,1.383c1.325,0,2.553-0.491,3.455-1.383c0.854-0.842,1.323-1.954,1.323-3.131
					c0-0.778-0.157-1.58-0.434-2.332l0.891,0.482c0.142,0.077,0.221,0.188,0.221,0.306v4.679c0,0.229,0.086,0.46,0.25,0.666
					l1.015,1.273c0.098,0.123,0.297,0.194,0.504,0.194c0.084,0,0.17-0.012,0.25-0.038c0.278-0.086,0.39-0.299,0.252-0.474
					l-1.014-1.273c-0.086-0.107-0.132-0.228-0.132-0.349v-4.679c0-0.325-0.224-0.631-0.612-0.841l-2.237-1.212
					c-0.293-0.48-0.64-0.915-1.023-1.275l3.479,0.625c0.011,0.002,0.02,0.007,0.025,0.013l2.899,4.37
					c0.091,0.136,0.299,0.217,0.521,0.217c0.072,0,0.146-0.008,0.216-0.027C217.38,62.64,217.516,62.435,217.396,62.253z
					 M204.793,52.558c0-1.182,0.938-1.916,2.448-1.916c1.509,0,2.447,0.734,2.447,1.916c0,1.182-0.938,1.915-2.447,1.915
					C205.731,54.472,204.793,53.739,204.793,52.558z M207.882,55.145v0.462h-1.282v-0.462c0.208,0.023,0.422,0.035,0.641,0.035
					C207.46,55.18,207.675,55.168,207.882,55.145z M206.037,57.119c-0.354,0-0.641-0.18-0.641-0.402s0.287-0.403,0.641-0.403h2.409
					c0.354,0,0.641,0.181,0.641,0.403s-0.287,0.402-0.641,0.402c-0.312,0-0.564,0.159-0.564,0.355c0,0.195,0.252,0.353,0.564,0.353
					c0.151,0,0.298-0.012,0.439-0.035c0.191,0.164,0.371,0.35,0.541,0.553c-0.685,0.188-1.432,0.288-2.185,0.288
					c-0.752,0-1.501-0.1-2.186-0.288c0.171-0.203,0.351-0.39,0.541-0.553c0.141,0.023,0.289,0.035,0.44,0.035
					c0.311,0,0.563-0.158,0.563-0.353C206.601,57.278,206.348,57.119,206.037,57.119z M207.241,66.196
					c-0.807,0-1.583-0.285-2.226-0.806h4.453C208.826,65.912,208.048,66.196,207.241,66.196z M210.144,64.682h-5.803
					c-0.185-0.25-0.337-0.521-0.456-0.804h6.716C210.481,64.163,210.329,64.432,210.144,64.682z M210.894,62.39
					c0,0.266-0.026,0.525-0.079,0.78h-7.146c-0.052-0.255-0.078-0.515-0.078-0.78c0-0.009,0-0.017,0-0.025h7.303
					C210.893,62.374,210.894,62.381,210.894,62.39z M210.46,60.145h-0.81c-0.312,0-0.564,0.159-0.564,0.354
					c0,0.195,0.252,0.354,0.564,0.354h1.036c0.07,0.266,0.122,0.535,0.157,0.805h-7.206c0.034-0.27,0.088-0.539,0.158-0.805h3.444
					c0.312,0,0.564-0.159,0.564-0.354c0-0.195-0.251-0.354-0.564-0.354h-3.218c0.156-0.407,0.349-0.797,0.571-1.153
					c0.83,0.228,1.736,0.348,2.647,0.348c0.913,0,1.818-0.12,2.649-0.348C210.113,59.348,210.305,59.738,210.46,60.145z"/>
			</g>
		</g>
	</g>
	<g>
		<g>
			<path fill="#EB7E24" d="M235.376,77.29l-12.371-11.522c5.719-7.932,3.451-18.681-5.065-24.007
				c-8.516-5.327-20.056-3.215-25.775,4.718c-5.719,7.932-3.451,18.68,5.065,24.007c6.262,3.917,14.446,3.917,20.709,0
				l12.371,11.523c1.398,1.302,3.666,1.302,5.065,0C236.775,80.705,236.775,78.593,235.376,77.29z M207.603,71.951
				c-9.373-0.009-16.968-7.083-16.979-15.813c0-8.733,7.602-15.813,16.979-15.813c9.376,0,16.978,7.081,16.978,15.813
				C224.58,64.873,216.979,71.951,207.603,71.951z M234.26,80.966c-0.376,0.351-0.885,0.548-1.417,0.548
				c-0.531,0.002-1.041-0.195-1.416-0.546l-12.049-11.223l2.833-2.638L234.26,78.33C235.042,79.058,235.042,80.238,234.26,80.966z"
				/>
		</g>
	</g>
</g>
<g>
	<g id="Solution">
		<path fill="#EB7E24" d="M279.58,52.508l-5.267-4.906c-0.322-0.302-0.847-0.304-1.172-0.005c-0.128,0.119-0.211,0.273-0.237,0.439
			c-0.259,1.687-1.937,2.859-3.748,2.618c-1.812-0.241-3.07-1.804-2.811-3.492c0.208-1.357,1.354-2.423,2.811-2.617
			c0.453-0.061,0.768-0.451,0.703-0.872c-0.026-0.167-0.109-0.321-0.237-0.439l-5.268-4.906c-0.323-0.301-0.847-0.301-1.17,0
			l-4.575,4.259c-0.709-2.469-3.433-3.937-6.084-3.277c-2.651,0.66-4.226,3.197-3.518,5.667c0.459,1.599,1.799,2.849,3.518,3.277
			l-4.569,4.255c-0.324,0.301-0.324,0.79,0,1.09l4.57,4.264c-2.651,0.664-4.222,3.202-3.51,5.67c0.401,1.393,1.476,2.532,2.908,3.08
			l-1.934,5.195c-0.521,1.093-0.469,2.348,0.143,3.399l2.907,6.404c0.011,0.025,0.023,0.05,0.037,0.073
			c0.203,0.345,0.31,0.735,0.309,1.133v0.74c0,0.425,0.371,0.771,0.828,0.771c0.458,0,0.829-0.347,0.829-0.771v-0.74
			c0-0.643-0.171-1.276-0.497-1.839l-2.908-6.404c-0.012-0.025-0.024-0.051-0.04-0.078c-0.385-0.653-0.412-1.441-0.073-2.116
			l2.025-5.431c0.087,0,0.172,0.012,0.261,0.012c2.247,0.001,4.215-1.404,4.795-3.427l1.405,1.303v7.919
			c0,0.425,0.371,0.771,0.828,0.771c0.458,0,0.828-0.346,0.828-0.771V61.956c0-1.278,1.112-2.314,2.485-2.314
			c1.372,0,2.484,1.036,2.484,2.314v9.341c0.001,1.08,0.271,2.141,0.788,3.105l0.302,0.568c0.813,1.521,0.813,3.308,0,4.829
			l-0.828,1.542c-0.172,0.322-0.262,0.675-0.262,1.035v1.18c0,0.425,0.371,0.771,0.829,0.771c0.457,0,0.828-0.347,0.828-0.771v-1.18
			c0-0.119,0.028-0.238,0.083-0.346l0.829-1.542c1.044-1.955,1.044-4.254,0-6.208l-0.303-0.567c-0.298-0.554-0.49-1.154-0.569-1.77
			c1.086,1.015,2.563,1.585,4.102,1.583c1.372,0,2.484-1.036,2.484-2.313v-4.398c2.662-0.613,4.286-3.12,3.626-5.599
			c-0.434-1.635-1.789-2.921-3.536-3.356l4.57-4.263C279.899,53.297,279.897,52.811,279.58,52.508z M272.435,71.984
			c-2.286-0.002-4.138-1.728-4.141-3.857v-4.011l0.633-0.589c0.535,1.871,2.267,3.232,4.337,3.409v4.278
			C273.264,71.638,272.893,71.984,272.435,71.984z M272.554,57.969c-0.326,0.299-0.328,0.789-0.006,1.092
			c0.186,0.174,0.45,0.257,0.712,0.22c1.812-0.239,3.488,0.935,3.744,2.623c0.256,1.688-1.004,3.248-2.816,3.487
			c-1.812,0.24-3.488-0.935-3.744-2.623c-0.044-0.287-0.044-0.579,0-0.864c0.068-0.422-0.243-0.815-0.696-0.878
			c-0.262-0.037-0.526,0.045-0.712,0.221l-0.741,0.692c-0.005-2.132-1.863-3.854-4.15-3.85c-2.287,0.005-4.137,1.735-4.132,3.866
			l0,0v0.698l-1.519-1.414c-0.32-0.302-0.845-0.305-1.171-0.005c-0.188,0.173-0.276,0.419-0.237,0.663
			c0.256,1.688-1.004,3.249-2.816,3.488c-1.811,0.238-3.488-0.936-3.745-2.623c-0.256-1.688,1.004-3.249,2.816-3.488
			c0.308-0.041,0.62-0.041,0.928,0c0.453,0.063,0.875-0.226,0.943-0.647c0.04-0.245-0.049-0.491-0.237-0.664l-5.265-4.91
			l5.271-4.906c0.325-0.3,0.328-0.789,0.006-1.091c-0.186-0.175-0.45-0.257-0.712-0.22c-1.812,0.236-3.486-0.941-3.739-2.63
			c-0.144-0.956,0.202-1.919,0.934-2.604c1.312-1.164,3.373-1.164,4.685,0c0.735,0.687,1.081,1.654,0.934,2.614
			c-0.068,0.421,0.243,0.813,0.696,0.878c0.261,0.036,0.526-0.045,0.712-0.221l5.275-4.907l3.711,3.457
			c-2.477,1.102-3.526,3.865-2.343,6.172c1.183,2.306,4.149,3.283,6.625,2.181c1.026-0.456,1.853-1.226,2.343-2.181l3.711,3.456
			L272.554,57.969z"/>
		<path fill="#EB7E24" d="M288.172,54.241h-4.97c-0.458,0-0.828-0.344-0.828-0.77c0-0.427,0.371-0.772,0.828-0.772h4.97
			c0.457,0,0.828,0.345,0.828,0.772C289,53.896,288.629,54.241,288.172,54.241z"/>
		<path fill="#EB7E24" d="M282.307,45.371c-0.457,0-0.828-0.346-0.828-0.771c0-0.276,0.158-0.531,0.414-0.669l4.308-2.314
			c0.397-0.21,0.903-0.08,1.129,0.29c0.224,0.368,0.09,0.833-0.301,1.047l-4.306,2.314
			C282.595,45.334,282.453,45.371,282.307,45.371z"/>
		<path fill="#EB7E24" d="M286.608,65.427c-0.145,0-0.287-0.036-0.413-0.104l-4.307-2.314c-0.397-0.21-0.536-0.681-0.311-1.052
			c0.226-0.37,0.732-0.5,1.13-0.29c0.002,0.002,0.006,0.004,0.009,0.005l4.307,2.315c0.396,0.213,0.532,0.685,0.302,1.054
			C287.178,65.28,286.906,65.427,286.608,65.427z"/>
		<path fill="#EB7E24" d="M245.104,54.241h-4.969c-0.458,0-0.829-0.344-0.829-0.77c0-0.427,0.371-0.772,0.829-0.772h4.969
			c0.458,0,0.828,0.345,0.828,0.772C245.932,53.896,245.561,54.241,245.104,54.241z"/>
		<path fill="#EB7E24" d="M245.999,45.371c-0.145,0-0.288-0.036-0.414-0.104l-4.307-2.314c-0.395-0.215-0.527-0.688-0.295-1.056
			c0.229-0.365,0.73-0.49,1.124-0.281l4.307,2.314c0.396,0.213,0.532,0.686,0.303,1.055
			C246.568,45.223,246.294,45.371,245.999,45.371z"/>
		<path fill="#EB7E24" d="M241.696,65.427c-0.458,0-0.829-0.345-0.829-0.771c0-0.275,0.158-0.53,0.415-0.668l4.307-2.315
			c0.395-0.215,0.902-0.091,1.133,0.276c0.232,0.368,0.1,0.84-0.295,1.055c-0.003,0.002-0.007,0.004-0.01,0.005l-4.307,2.314
			C241.985,65.391,241.842,65.427,241.696,65.427z"/>
	</g>
</g>
<g>
	<g id="biomatic_sensor">
		<path fill="#F57E20" d="M106.406,72.211c-0.001-1.544-1.346-2.796-3.004-2.794c-0.599,0-1.183,0.167-1.679,0.479
			c-0.535-1.453-2.233-2.227-3.794-1.729c-0.251,0.081-0.489,0.192-0.709,0.331c-0.521-1.444-2.202-2.221-3.752-1.735
			c-0.199,0.063-0.391,0.144-0.571,0.244V56.832c0-1.545-1.345-2.796-3.003-2.796c-1.658,0-3.002,1.251-3.002,2.796v9.146
			L80.98,76.071c-0.121,0.208-0.121,0.458,0,0.665l5.249,9.089c0.131,0.225,0.385,0.366,0.662,0.366h12.767
			c0.24,0,0.465-0.105,0.606-0.287l5.999-7.689c0.094-0.119,0.144-0.263,0.144-0.411V72.211z M104.905,77.576l-5.629,7.218h-11.94
			l-4.844-8.389l4.4-7.508v5.411h1.501V56.832c0-0.772,0.672-1.398,1.501-1.398c0.83,0,1.502,0.626,1.502,1.398v17.476h1.501v-4.894
			c0-0.772,0.671-1.397,1.501-1.397c0.829,0,1.501,0.625,1.501,1.397v5.592H97.4v-4.194c0-0.772,0.672-1.398,1.501-1.398
			s1.501,0.626,1.501,1.398v5.593h1.5v-4.194c0-0.773,0.673-1.398,1.501-1.398c0.829,0,1.501,0.625,1.501,1.398V77.576z"/>
		<path fill="#F57E20" d="M109.409,81.997h6.003v1.399h-6.003V81.997z"/>
		<path fill="#F57E20" d="M113.911,84.794h1.501v1.396h-1.501V84.794z"/>
		<path fill="#F57E20" d="M106.406,81.997h1.501v1.399h-1.501V81.997z"/>
		<path fill="#F57E20" d="M106.406,84.794h6.004v1.396h-6.004V84.794z"/>
		<path fill="#F57E20" d="M73.383,81.997h6.004v1.399h-6.004V81.997z"/>
		<path fill="#F57E20" d="M77.886,84.794h1.501v1.396h-1.501V84.794z"/>
		<path fill="#F57E20" d="M70.381,81.997h1.501v1.399h-1.501V81.997z"/>
		<path fill="#F57E20" d="M73.383,76.405h6.004v1.397h-6.004V76.405z"/>
		<path fill="#F57E20" d="M70.381,76.405h1.501v1.397h-1.501V76.405z"/>
		<path fill="#F57E20" d="M70.381,84.794h6.004v1.396h-6.004V84.794z"/>
		<path fill="#F57E20" d="M70.381,79.202h4.503V80.6h-4.503V79.202z"/>
		<path fill="#F57E20" d="M76.386,79.202h3.001V80.6h-3.001V79.202z"/>
		<path fill="#F57E20" d="M81.639,67.318h1.501v1.398h-1.501V67.318z"/>
		<path fill="#F57E20" d="M73.383,68.017v6.99h1.501v-6.291h5.253v-1.398h-6.003C73.719,67.318,73.383,67.63,73.383,68.017z"/>
		<path fill="#F57E20" d="M106.406,56.832c1.243,0,2.251-0.939,2.251-2.098v-2.796c0-1.158-1.008-2.097-2.251-2.097
			s-2.252,0.939-2.252,2.097v2.796C104.154,55.893,105.163,56.832,106.406,56.832z M105.655,51.938c0-0.386,0.336-0.699,0.751-0.699
			c0.415,0,0.751,0.313,0.751,0.699v2.796c0,0.386-0.336,0.699-0.751,0.699c-0.415,0-0.751-0.313-0.751-0.699V51.938z"/>
		<path fill="#F57E20" d="M106.406,59.628c2.9-0.003,5.25-2.192,5.253-4.894v-2.796c0-2.703-2.352-4.893-5.253-4.893
			c-2.902,0-5.254,2.19-5.254,4.893v2.796C101.156,57.436,103.506,59.625,106.406,59.628z M102.654,51.938
			c0-1.93,1.68-3.495,3.752-3.495s3.753,1.565,3.753,3.495v2.796c0,1.931-1.681,3.496-3.753,3.496s-3.752-1.565-3.752-3.496V51.938z
			"/>
		<path fill="#F57E20" d="M106.406,62.425c4.558-0.005,8.251-3.445,8.255-7.69v-2.796c0-4.247-3.696-7.689-8.255-7.689
			c-4.56,0-8.255,3.442-8.255,7.689v2.796C98.156,58.979,101.849,62.419,106.406,62.425z M99.652,51.938
			c0-3.475,3.024-6.291,6.754-6.291s6.754,2.816,6.754,6.291v2.796c0,3.475-3.024,6.292-6.754,6.292s-6.754-2.817-6.754-6.292
			V51.938z"/>
		<path fill="#F57E20" d="M90.646,50.541H97.4v-1.398h-7.506c-0.415,0-0.75,0.313-0.75,0.699v2.796h1.501V50.541z"/>
		<path fill="#F57E20" d="M107.157,66.244v-2.422h-1.502v2.797c0,0.233,0.126,0.451,0.335,0.581l2.251,1.398
			c0.124,0.076,0.268,0.117,0.417,0.118h6.754v-1.398h-6.529L107.157,66.244z"/>
		<path fill="#F57E20" d="M71.132,65.22h13.509c0.415,0,0.75-0.313,0.75-0.699V44.948c0-0.386-0.335-0.699-0.75-0.699H71.132
			c-0.415,0-0.751,0.313-0.751,0.699v19.573C70.381,64.907,70.717,65.22,71.132,65.22z M71.882,45.647h12.009v18.174H71.882V45.647z
			"/>
		<path fill="#F57E20" d="M73.383,47.045h4.503v1.398h-4.503V47.045z"/>
		<path fill="#F57E20" d="M79.387,47.045h3.002v1.398h-3.002V47.045z"/>
		<path fill="#F57E20" d="M73.383,49.841h1.501v1.398h-1.501V49.841z"/>
		<path fill="#F57E20" d="M76.386,49.841h6.004v1.398h-6.004V49.841z"/>
		<path fill="#F57E20" d="M73.383,52.638h6.004v1.398h-6.004V52.638z"/>
		<path fill="#F57E20" d="M80.889,52.638h1.5v1.398h-1.5V52.638z"/>
		<path fill="#F57E20" d="M73.383,55.434h4.503v1.398h-4.503V55.434z"/>
		<path fill="#F57E20" d="M79.387,55.434h3.002v1.398h-3.002V55.434z"/>
		<path fill="#F57E20" d="M73.383,58.23h3.002v1.398h-3.002V58.23z"/>
		<path fill="#F57E20" d="M77.886,58.23h4.503v1.398h-4.503V58.23z"/>
		<path fill="#F57E20" d="M73.383,61.026h6.004v1.398h-6.004V61.026z"/>
		<path fill="#F57E20" d="M80.889,61.026h1.5v1.398h-1.5V61.026z"/>
		<path fill="#F57E20" d="M113.911,64.521h1.501v1.399h-1.501V64.521z"/>
		<path fill="#F57E20" d="M109.409,64.521h3.002v1.399h-3.002V64.521z"/>
		<path fill="#F57E20" d="M113.911,70.114h1.501v1.398h-1.501V70.114z"/>
		<path fill="#F57E20" d="M109.409,70.114h3.002v1.398h-3.002V70.114z"/>
	</g>
</g>
</svg>
